<?xml version="1.0" standalone="no"?>
<!DOCTYPE svg PUBLIC "-//W3C//DTD SVG 20010904//EN"
 "http://www.w3.org/TR/2001/REC-SVG-20010904/DTD/svg10.dtd">
<svg version="1.0" xmlns="http://www.w3.org/2000/svg"
 width="366.000000pt" height="366.000000pt" viewBox="0 0 366.000000 366.000000"
 preserveAspectRatio="xMidYMid meet">
<metadata>
Created by potrace 1.11, written by Peter Selinger 2001-2013
</metadata>
<g transform="translate(0.000000,366.000000) scale(0.100000,-0.100000)"
fill="#000000" stroke="none">
<path d="M2170 3609 c0 -49 1 -50 28 -47 25 3 27 7 29 51 2 46 1 47 -28 47
-28 0 -29 -1 -29 -51z"/>
<path d="M2170 3425 c0 -47 3 -54 18 -52 33 5 41 18 40 62 0 43 -2 45 -29 45
-28 0 -29 -1 -29 -55z"/>
<path d="M2170 3240 c0 -48 1 -50 28 -50 28 0 29 2 29 50 1 49 0 50 -28 50
-28 0 -29 -2 -29 -50z"/>
<path d="M2177 3104 c-4 -4 -7 -18 -7 -31 0 -25 -23 -57 -33 -47 -3 3 -4 -2
-3 -13 2 -10 11 -19 22 -20 18 -3 18 -2 1 5 -17 7 -17 10 -4 20 12 10 16 8 21
-10 9 -36 8 -38 -24 -49 -16 -6 -30 -16 -30 -22 0 -7 -5 -5 -10 3 -8 13 -10
13 -10 -2 0 -12 -5 -15 -17 -11 -12 5 -15 2 -10 -10 7 -19 -19 -37 -43 -30
-10 4 -9 0 3 -9 18 -13 18 -15 1 -29 -16 -12 -17 -12 -11 4 3 9 2 17 -3 17
-13 0 -13 -23 1 -37 13 -13 2 -56 -12 -48 -5 4 -9 2 -9 -3 0 -6 7 -13 16 -16
8 -3 12 -11 9 -16 -4 -6 10 -26 29 -44 26 -23 45 -32 66 -31 17 1 30 -2 30 -7
0 -5 10 -4 22 3 18 10 20 9 15 -6 -4 -9 -7 -19 -7 -21 0 -3 -5 -2 -12 2 -7 5
-8 3 -3 -5 5 -9 15 -3 35 21 26 31 29 32 53 19 14 -7 30 -11 35 -7 5 3 12 -1
16 -9 3 -8 10 -15 16 -15 5 0 3 8 -6 19 -9 10 -24 16 -34 14 -29 -8 -33 16 -6
29 14 6 26 15 26 20 0 4 4 8 10 8 5 0 7 -8 3 -17 -3 -10 -3 -15 2 -11 4 4 8
18 9 30 1 15 7 23 19 22 9 -1 15 1 13 5 -2 3 2 21 10 39 10 26 19 33 36 30 18
-2 23 2 25 22 2 22 1 23 -5 4 -5 -14 -12 -19 -22 -15 -16 6 -23 51 -8 51 5 0
-4 12 -21 26 -17 14 -31 36 -31 47 0 17 -2 19 -9 8 -7 -11 -11 -10 -20 7 -8
14 -17 19 -32 15 -17 -5 -20 -3 -14 7 5 9 4 11 -4 6 -17 -11 -2 -29 20 -23 11
3 19 1 19 -4 0 -13 -44 -11 -58 3 -9 9 -12 9 -12 1 0 -7 -9 -11 -20 -10 -27 2
-25 15 3 19 18 2 21 8 19 31 -2 21 0 27 10 22 7 -3 6 -1 -2 7 -8 7 -15 20 -15
28 0 16 -36 26 -48 14z m98 -193 c-2 -4 1 -13 7 -21 8 -12 9 -12 4 2 -3 10 -2
19 2 22 11 7 27 -17 30 -46 3 -21 -1 -28 -13 -28 -9 0 -13 -5 -10 -10 3 -6 -1
-13 -9 -16 -9 -3 -16 -11 -16 -18 0 -6 -13 -20 -30 -29 -31 -19 -35 -15 -31
23 2 12 0 13 -7 1 -5 -7 -7 -23 -5 -35 5 -20 5 -20 -9 -2 -12 15 -17 16 -23 6
-5 -9 -4 -11 3 -6 7 4 12 2 12 -4 0 -15 -72 -9 -88 7 -11 11 -11 13 0 13 10 0
10 2 -1 9 -17 11 -6 45 12 38 8 -3 20 -1 28 4 11 8 10 9 -5 7 -10 -2 -21 4
-24 12 -3 8 -1 12 3 8 4 -4 18 5 31 20 18 20 22 22 17 8 -4 -13 -3 -17 5 -12
7 4 12 2 12 -3 0 -6 -4 -11 -10 -11 -5 0 -10 -5 -10 -11 0 -5 6 -7 13 -3 7 5
7 1 -3 -12 -8 -10 -10 -16 -6 -12 5 4 15 0 23 -10 10 -13 12 -14 8 -1 -5 12 2
15 34 14 29 -1 38 2 34 12 -3 7 -8 11 -12 9 -4 -3 -8 7 -9 21 -1 18 2 24 13
19 8 -3 17 0 21 6 4 7 3 8 -4 4 -7 -4 -12 -2 -12 4 0 6 -4 9 -8 6 -5 -3 -9 1
-9 8 0 8 11 14 23 14 13 0 22 -4 19 -7z"/>
<path d="M2258 2859 c-6 -4 4 -6 21 -5 17 0 31 4 31 8 0 8 -37 6 -52 -3z"/>
<path d="M2090 2800 c0 -5 5 -10 11 -10 5 0 7 5 4 10 -3 6 -8 10 -11 10 -2 0
-4 -4 -4 -10z"/>
<path d="M2137 2796 c5 -14 3 -17 -6 -11 -10 6 -11 3 -2 -14 14 -25 23 -28 14
-4 -4 10 -2 14 5 9 6 -3 14 -1 18 6 4 7 4 10 -1 6 -4 -4 -14 0 -22 10 -12 16
-13 16 -6 -2z"/>
<path d="M2355 3049 c-4 -6 -5 -12 -2 -15 2 -3 7 2 10 11 7 17 1 20 -8 4z"/>
<path d="M2595 3049 c-4 -6 -5 -12 -2 -15 2 -3 7 2 10 11 7 17 1 20 -8 4z"/>
<path d="M2772 3040 c-15 -25 -15 -27 1 -33 8 -3 13 5 13 24 2 34 2 34 -14 9z"/>
<path d="M2110 3039 c0 -5 5 -7 10 -4 6 3 10 8 10 11 0 2 -4 4 -10 4 -5 0 -10
-5 -10 -11z"/>
<path d="M1428 3033 c6 -2 18 -2 25 0 6 3 1 5 -13 5 -14 0 -19 -2 -12 -5z"/>
<path d="M1508 3033 c6 -2 18 -2 25 0 6 3 1 5 -13 5 -14 0 -19 -2 -12 -5z"/>
<path d="M1588 3033 c6 -2 18 -2 25 0 6 3 1 5 -13 5 -14 0 -19 -2 -12 -5z"/>
<path d="M1668 3033 c6 -2 18 -2 25 0 6 3 1 5 -13 5 -14 0 -19 -2 -12 -5z"/>
<path d="M1748 3033 c6 -2 18 -2 25 0 6 3 1 5 -13 5 -14 0 -19 -2 -12 -5z"/>
<path d="M1828 3033 c6 -2 18 -2 25 0 6 3 1 5 -13 5 -14 0 -19 -2 -12 -5z"/>
<path d="M1916 3026 c10 -8 21 -12 24 -10 5 6 -21 24 -34 24 -6 0 -1 -6 10
-14z"/>
<path d="M1972 3020 c0 -14 2 -19 5 -12 2 6 2 18 0 25 -3 6 -5 1 -5 -13z"/>
<path d="M2090 3031 c0 -10 19 -25 25 -20 1 2 -3 10 -11 17 -8 7 -14 8 -14 3z"/>
<path d="M2332 3020 c0 -14 2 -19 5 -12 2 6 2 18 0 25 -3 6 -5 1 -5 -13z"/>
<path d="M2403 3027 c19 -16 24 -32 5 -21 -7 4 -8 3 -4 -5 8 -12 26 -6 26 9 0
5 -10 14 -22 20 -21 10 -21 10 -5 -3z"/>
<path d="M2454 3028 c3 -15 26 -23 26 -8 0 6 -4 9 -9 6 -5 -4 -12 -1 -14 4 -3
6 -4 5 -3 -2z"/>
<path d="M2572 3020 c0 -14 2 -19 5 -12 2 6 2 18 0 25 -3 6 -5 1 -5 -13z"/>
<path d="M2643 3027 c19 -16 24 -32 5 -21 -7 4 -8 3 -4 -5 8 -12 26 -6 26 9 0
5 -10 14 -22 20 -21 10 -21 10 -5 -3z"/>
<path d="M2692 3020 c0 -14 2 -19 5 -12 2 6 2 18 0 25 -3 6 -5 1 -5 -13z"/>
<path d="M1330 3026 c0 -2 7 -7 16 -10 8 -3 12 -2 9 4 -6 10 -25 14 -25 6z"/>
<path d="M1382 3022 c-8 -6 -2 -9 18 -9 20 0 26 3 18 9 -7 4 -15 8 -18 8 -3 0
-11 -4 -18 -8z"/>
<path d="M1542 3022 c-8 -6 -2 -9 18 -9 20 0 26 3 18 9 -7 4 -15 8 -18 8 -3 0
-11 -4 -18 -8z"/>
<path d="M1620 3020 c-12 -7 -10 -9 8 -7 12 0 22 5 22 9 0 11 -12 10 -30 -2z"/>
<path d="M1782 3022 c-8 -6 -2 -9 18 -9 20 0 26 3 18 9 -7 4 -15 8 -18 8 -3 0
-11 -4 -18 -8z"/>
<path d="M2048 3023 c6 -2 12 -9 12 -14 0 -6 -5 -7 -12 -3 -7 5 -8 3 -3 -5 5
-9 11 -9 17 -3 12 12 2 32 -15 31 -9 0 -9 -2 1 -6z"/>
<path d="M2514 3019 c-3 -6 -1 -16 5 -22 6 -6 11 -7 11 -2 0 5 7 0 16 -11 14
-18 15 -18 4 4 -6 12 -15 20 -21 17 -5 -4 -9 -2 -9 4 0 5 6 12 13 14 9 4 9 6
0 6 -6 1 -15 -4 -19 -10z"/>
<path d="M2615 3010 c6 -10 4 -12 -8 -7 -10 3 -17 2 -17 -3 0 -13 27 -13 35
-1 3 5 0 13 -6 17 -8 5 -9 3 -4 -6z"/>
<path d="M1330 3000 c0 -5 5 -10 11 -10 5 0 7 5 4 10 -3 6 -8 10 -11 10 -2 0
-4 -4 -4 -10z"/>
<path d="M1459 3003 c-1 -5 0 -16 1 -27 1 -12 -2 -16 -11 -11 -8 5 -10 4 -5
-4 11 -17 29 -2 23 20 -3 12 2 19 17 22 20 4 20 4 -1 6 -13 0 -24 -2 -24 -6z"/>
<path d="M1516 2997 c3 -10 9 -15 12 -12 3 3 0 11 -7 18 -10 9 -11 8 -5 -6z"/>
<path d="M1675 2999 c-11 -16 -1 -19 13 -3 7 8 8 14 3 14 -5 0 -13 -5 -16 -11z"/>
<path d="M1721 3004 c11 -3 15 -12 12 -23 -3 -10 -1 -21 4 -24 5 -3 8 7 7 21
0 19 -7 28 -20 29 -14 1 -15 1 -3 -3z"/>
<path d="M1859 3003 c-1 -5 0 -16 1 -27 1 -12 -2 -16 -11 -11 -8 5 -10 4 -5
-4 11 -17 29 -2 23 20 -3 12 2 19 17 22 20 4 20 4 -1 6 -13 0 -24 -2 -24 -6z"/>
<path d="M1951 3000 c3 -30 -1 -41 -13 -34 -7 4 -8 3 -4 -4 10 -16 14 -15 25
6 6 12 6 23 0 33 -8 12 -10 12 -8 -1z"/>
<path d="M1990 3000 c0 -6 7 -10 15 -10 8 0 15 2 15 4 0 2 -7 6 -15 10 -8 3
-15 1 -15 -4z"/>
<path d="M2350 3000 c0 -6 7 -10 15 -10 8 0 15 2 15 4 0 2 -7 6 -15 10 -8 3
-15 1 -15 -4z"/>
<path d="M2437 2997 c-3 -8 -2 -20 3 -26 5 -9 8 -4 8 13 0 29 -3 32 -11 13z"/>
<path d="M2710 3000 c0 -5 7 -10 15 -10 8 0 15 -4 15 -8 0 -11 -56 -43 -64
-35 -3 3 -6 1 -6 -6 0 -8 8 -10 23 -5 21 6 21 6 4 -13 -9 -11 -14 -23 -10 -28
5 -4 1 -5 -7 -3 -8 3 -14 10 -13 16 2 6 -6 16 -17 22 -14 7 -20 7 -20 0 0 -5
7 -10 16 -10 8 0 13 -4 9 -9 -3 -5 -1 -12 5 -16 5 -3 10 -10 10 -16 0 -5 -9
-4 -20 3 -15 10 -22 10 -31 1 -9 -9 -7 -11 8 -7 11 3 25 -1 32 -10 15 -18 1
-22 -16 -5 -8 8 -13 8 -18 0 -3 -6 -1 -10 6 -9 6 2 14 -4 17 -12 2 -8 1 -12
-3 -8 -11 10 -47 -11 -39 -23 3 -6 -2 -9 -12 -7 -12 2 -19 -3 -19 -13 0 -9 -6
-23 -13 -31 -6 -8 -9 -18 -5 -21 3 -4 -1 -9 -10 -13 -15 -5 -15 -8 -2 -21 19
-19 19 -34 0 -27 -8 4 -12 11 -9 18 4 6 -1 3 -11 -6 -13 -12 -24 -14 -41 -8
-32 12 -43 -12 -21 -47 7 -11 -9 -27 -28 -28 -5 0 -11 -4 -12 -9 -1 -5 -7 -13
-15 -18 -10 -8 -10 -9 2 -5 8 2 14 10 12 17 -1 6 3 10 10 8 14 -5 25 -39 11
-37 -4 1 -15 1 -23 0 -13 -1 -13 -2 0 -11 8 -5 12 -10 8 -11 -5 -1 -12 -3 -18
-4 -5 -1 -16 -3 -22 -4 -10 -1 -9 -4 1 -10 8 -5 21 -7 29 -3 10 3 13 1 8 -6
-4 -8 -2 -10 8 -6 8 3 20 19 26 34 11 26 15 28 34 19 17 -8 16 -7 -4 10 -14
11 -29 21 -33 21 -5 0 -5 5 -2 10 5 8 11 7 21 -1 11 -9 18 -9 26 -1 9 9 9 12
-1 12 -7 0 -9 5 -5 11 4 8 9 8 17 0 6 -6 15 -11 21 -11 5 0 1 7 -10 16 -15 12
-16 15 -2 10 21 -6 50 36 41 61 -5 15 -3 16 8 6 16 -16 29 -17 29 -2 0 5 -4 8
-9 4 -5 -3 -13 0 -16 6 -4 6 2 13 14 16 17 4 20 10 15 27 -6 18 -5 19 8 8 9
-7 24 -9 33 -5 11 4 16 2 12 -3 -3 -6 -1 -16 4 -24 7 -11 8 -8 5 10 -2 18 -9
24 -24 23 -15 -2 -20 2 -16 12 4 8 11 12 17 8 6 -4 7 -1 2 7 -6 10 -11 9 -22
-5 -12 -18 -13 -17 -11 8 1 16 7 26 14 23 14 -5 57 38 47 47 -3 4 -1 7 5 7 5
0 13 -6 16 -12 2 -7 4 -2 3 10 -1 16 7 30 23 40 23 16 24 16 17 0 -3 -10 -2
-18 4 -18 6 0 9 8 7 18 -2 10 -11 16 -23 14 -17 -3 -17 -2 -5 13 13 16 15 15
32 -5 10 -12 18 -18 18 -12 0 5 -7 15 -15 22 -8 7 -15 17 -15 22 0 6 7 5 15
-2 10 -9 15 -9 15 -1 0 6 -4 11 -10 11 -5 0 -10 5 -10 11 0 6 7 8 16 5 9 -3
12 -2 9 5 -4 5 -12 8 -18 6 -7 -2 -20 0 -29 5 -12 5 -18 5 -18 -2z m-115 -234
c1 -13 -10 -30 -25 -41 -16 -12 -21 -14 -13 -4 7 9 11 18 8 21 -3 3 1 11 9 17
8 7 12 20 9 29 -4 10 -2 14 3 9 5 -5 9 -19 9 -31z m-101 -107 c-3 -5 -1 -9 4
-9 6 0 12 7 16 15 3 8 12 12 20 9 8 -3 12 -12 9 -20 -3 -8 -9 -11 -15 -8 -13
8 -49 -26 -41 -40 3 -6 2 -7 -3 -3 -5 5 -10 13 -10 18 -1 5 -2 10 -3 12 -2 1
-4 12 -7 24 -3 17 0 20 16 16 11 -3 17 -9 14 -14z m-45 -121 c-5 -10 -12 -18
-14 -18 -2 0 -3 8 -2 18 0 10 7 19 13 19 9 0 10 -5 3 -19z"/>
<path d="M1352 2984 c-7 -8 -8 -14 -3 -14 10 0 25 19 20 25 -2 1 -10 -3 -17
-11z"/>
<path d="M1393 2975 c0 -30 6 -28 12 4 2 11 0 21 -4 21 -5 0 -8 -11 -8 -25z"/>
<path d="M1557 2987 c-3 -8 -2 -20 3 -26 5 -9 8 -4 8 13 0 29 -3 32 -11 13z"/>
<path d="M1590 2991 c0 -5 7 -11 14 -14 10 -4 13 -1 9 9 -6 15 -23 19 -23 5z"/>
<path d="M1633 2974 c0 -17 2 -22 7 -13 5 6 6 18 3 26 -8 19 -10 16 -10 -13z"/>
<path d="M1756 2983 c-6 -14 -5 -15 5 -6 7 7 10 15 7 18 -3 3 -9 -2 -12 -12z"/>
<path d="M1793 2985 c0 -8 4 -15 9 -15 4 0 8 7 8 15 0 8 -4 15 -8 15 -5 0 -9
-7 -9 -15z"/>
<path d="M1490 2976 c0 -20 17 -29 26 -15 5 8 3 9 -6 4 -10 -6 -12 -4 -7 8 3
10 2 17 -3 17 -6 0 -10 -6 -10 -14z"/>
<path d="M1696 2976 c3 -9 -2 -13 -17 -12 -12 0 -24 -6 -26 -14 -3 -9 -1 -11
4 -5 4 6 17 11 28 10 11 0 21 8 23 18 2 9 -1 17 -7 17 -6 0 -8 -6 -5 -14z"/>
<path d="M1890 2976 c0 -20 17 -29 26 -15 5 8 3 9 -6 4 -10 -6 -12 -4 -7 8 3
10 2 17 -3 17 -6 0 -10 -6 -10 -14z"/>
<path d="M2019 2979 c-12 -8 -12 -10 1 -8 30 3 41 -1 34 -13 -4 -7 -3 -8 4 -4
16 10 15 14 -6 25 -12 6 -23 6 -33 0z"/>
<path d="M2112 2981 c-11 -6 -10 -10 4 -15 9 -3 19 -4 22 -1 3 3 0 5 -7 5 -7
0 -9 5 -6 10 7 12 4 12 -13 1z"/>
<path d="M2390 2984 c0 -6 6 -17 14 -23 11 -9 16 -9 22 1 4 7 4 10 -1 6 -4 -4
-14 0 -21 10 -7 9 -14 12 -14 6z"/>
<path d="M2468 2983 c7 -3 16 -2 19 1 4 3 -2 6 -13 5 -11 0 -14 -3 -6 -6z"/>
<path d="M2574 2971 c1 -8 12 -15 28 -15 14 -1 24 2 21 7 -3 5 -14 7 -24 4
-10 -3 -20 0 -22 7 -2 6 -3 5 -3 -3z"/>
<path d="M2630 2981 c0 -5 5 -13 10 -16 6 -3 10 -2 10 4 0 5 -4 13 -10 16 -5
3 -10 2 -10 -4z"/>
<path d="M2676 2975 c4 -8 8 -15 10 -15 2 0 4 7 4 15 0 8 -4 15 -10 15 -5 0
-7 -7 -4 -15z"/>
<path d="M1975 2970 c-7 -11 22 -26 32 -16 4 3 -1 6 -11 6 -9 0 -14 5 -11 10
3 6 4 10 1 10 -3 0 -8 -5 -11 -10z"/>
<path d="M1417 2963 c-2 -5 -3 -16 -1 -26 2 -13 -2 -17 -12 -13 -8 3 -14 1
-14 -5 0 -6 8 -9 18 -7 9 2 16 10 15 16 -4 16 14 15 20 0 4 -10 6 -10 6 0 1 7
-6 15 -14 18 -8 4 -12 10 -9 15 3 5 3 9 0 9 -3 0 -7 -3 -9 -7z"/>
<path d="M1536 2957 c3 -10 9 -15 12 -12 3 3 0 11 -7 18 -10 9 -11 8 -5 -6z"/>
<path d="M1773 2963 c4 -6 0 -13 -8 -17 -8 -3 -15 -11 -14 -18 0 -10 2 -10 6
0 2 6 9 12 14 12 5 0 8 -6 7 -12 -2 -7 6 -13 17 -13 11 0 23 -9 27 -20 6 -17
7 -16 5 5 -2 20 -7 24 -24 22 -17 -2 -21 1 -18 17 2 11 -1 24 -7 27 -6 4 -8 3
-5 -3z"/>
<path d="M2076 2953 c-6 -14 -5 -15 5 -6 7 7 10 15 7 18 -3 3 -9 -2 -12 -12z"/>
<path d="M2350 2961 c0 -6 7 -7 17 -4 11 4 14 3 9 -5 -4 -7 3 -16 18 -23 14
-7 23 -15 21 -20 -3 -4 -1 -10 4 -13 5 -4 8 1 7 10 -1 9 -13 22 -27 29 -13 8
-23 17 -21 22 2 4 -4 9 -12 11 -9 2 -16 -1 -16 -7z"/>
<path d="M2510 2961 c8 -5 18 -7 23 -4 6 4 8 -6 5 -21 -4 -18 -2 -24 4 -18 17
17 4 45 -22 49 -18 2 -21 1 -10 -6z"/>
<path d="M2032 2940 c0 -14 2 -19 5 -12 2 6 2 18 0 25 -3 6 -5 1 -5 -13z"/>
<path d="M1356 2934 c-9 -24 -2 -26 12 -4 7 11 8 20 3 20 -5 0 -12 -7 -15 -16z"/>
<path d="M1475 2940 c3 -5 11 -10 16 -10 6 0 7 5 4 10 -3 6 -11 10 -16 10 -6
0 -7 -4 -4 -10z"/>
<path d="M1516 2935 c-9 -26 -7 -32 5 -12 6 10 9 21 6 23 -2 3 -7 -2 -11 -11z"/>
<path d="M1588 2943 c6 -2 18 -2 25 0 6 3 1 5 -13 5 -14 0 -19 -2 -12 -5z"/>
<path d="M1705 2940 c-3 -5 -2 -10 4 -10 5 0 13 5 16 10 3 6 2 10 -4 10 -5 0
-13 -4 -16 -10z"/>
<path d="M1832 2930 c7 -10 14 -18 15 -16 6 6 -9 36 -18 36 -5 0 -4 -9 3 -20z"/>
<path d="M1865 2940 c-3 -5 -2 -10 4 -10 5 0 13 5 16 10 3 6 2 10 -4 10 -5 0
-13 -4 -16 -10z"/>
<path d="M1916 2942 c-3 -4 4 -9 15 -9 23 -2 25 3 4 10 -8 4 -16 3 -19 -1z"/>
<path d="M2430 2940 c0 -5 9 -14 20 -20 11 -6 20 -9 20 -8 0 2 -9 11 -20 21
-11 9 -20 13 -20 7z"/>
<path d="M2450 2946 c0 -2 7 -7 16 -10 8 -3 12 -2 9 4 -6 10 -25 14 -25 6z"/>
<path d="M2493 2936 c3 -8 2 -17 -4 -20 -5 -2 -4 -3 2 -2 15 3 21 36 7 36 -6
0 -8 -6 -5 -14z"/>
<path d="M2590 2940 c-9 -6 -10 -10 -3 -10 6 0 15 5 18 10 8 12 4 12 -15 0z"/>
<path d="M1561 2932 c-1 -7 -5 -11 -10 -8 -9 6 -41 -35 -41 -51 0 -4 8 4 18
18 9 15 25 25 34 23 10 -1 21 3 25 8 3 6 1 8 -5 4 -5 -3 -13 0 -15 6 -4 10 -6
10 -6 0z"/>
<path d="M1630 2932 c0 -7 -5 -10 -12 -6 -6 4 -8 3 -5 -4 4 -5 15 -9 25 -8 9
2 25 -8 34 -23 10 -14 18 -21 18 -16 0 14 -39 63 -40 50 0 -5 -5 -3 -10 5 -7
11 -10 11 -10 2z"/>
<path d="M1676 2927 c3 -10 9 -15 12 -12 3 3 0 11 -7 18 -10 9 -11 8 -5 -6z"/>
<path d="M1984 2925 c-18 -14 -18 -14 4 -8 12 3 22 9 22 14 0 12 -3 11 -26 -6z"/>
<path d="M1897 2919 c7 -7 15 -10 18 -7 3 3 -2 9 -12 12 -14 6 -15 5 -6 -5z"/>
<path d="M2556 2913 c-6 -14 -5 -15 5 -6 7 7 10 15 7 18 -3 3 -9 -2 -12 -12z"/>
<path d="M1372 2900 c0 -14 2 -19 5 -12 2 6 2 18 0 25 -3 6 -5 1 -5 -13z"/>
<path d="M1953 2894 c0 -17 2 -22 7 -13 5 6 6 18 3 26 -8 19 -10 16 -10 -13z"/>
<path d="M1470 2902 c0 -5 7 -9 15 -9 8 0 15 4 15 9 0 4 -7 8 -15 8 -8 0 -15
-4 -15 -8z"/>
<path d="M1590 2901 c0 -6 4 -12 8 -15 5 -3 9 1 9 9 0 8 -4 15 -9 15 -4 0 -8
-4 -8 -9z"/>
<path d="M1700 2905 c0 -8 29 -12 39 -5 9 5 4 8 -13 8 -14 0 -26 -2 -26 -3z"/>
<path d="M1745 2888 l-20 -21 23 12 c12 6 22 16 22 21 0 13 -2 12 -25 -12z"/>
<path d="M1871 2900 c-9 -5 -4 -7 13 -7 29 0 32 2 13 10 -8 3 -20 2 -26 -3z"/>
<path d="M2501 2900 c-9 -5 -4 -7 13 -7 29 0 32 2 13 10 -8 3 -20 2 -26 -3z"/>
<path d="M2580 2905 c0 -8 29 -12 39 -5 9 5 4 8 -13 8 -14 0 -26 -2 -26 -3z"/>
<path d="M2775 2900 c-3 -5 -3 -10 2 -11 4 -1 -3 -5 -17 -10 l-25 -8 24 2 c14
1 25 9 27 20 3 19 -2 22 -11 7z"/>
<path d="M1337 2873 c6 -25 18 -30 29 -10 4 6 4 9 -1 5 -4 -4 -14 0 -21 10
-12 15 -12 15 -7 -5z"/>
<path d="M1390 2880 c0 -5 7 -6 17 -3 12 5 14 3 8 -7 -5 -9 -4 -11 4 -6 6 4 9
12 6 17 -8 12 -35 12 -35 -1z"/>
<path d="M1440 2870 c-7 -14 -7 -20 0 -20 5 0 10 7 10 16 0 9 5 12 12 8 7 -4
8 -3 4 4 -10 16 -14 15 -26 -8z"/>
<path d="M1550 2880 c0 -5 7 -7 15 -4 8 4 15 8 15 10 0 2 -7 4 -15 4 -8 0 -15
-4 -15 -10z"/>
<path d="M1620 2886 c0 -2 7 -6 15 -10 8 -3 15 -1 15 4 0 6 -7 10 -15 10 -8 0
-15 -2 -15 -4z"/>
<path d="M1777 2884 c-8 -8 3 -34 15 -34 6 0 4 8 -3 17 -12 15 -12 16 4 10 9
-3 17 -2 17 3 0 11 -23 14 -33 4z"/>
<path d="M1974 2878 c-4 -5 -3 -12 0 -15 3 -4 6 -1 6 6 0 7 4 10 9 6 5 -3 12
-2 15 3 3 5 -2 9 -10 9 -8 0 -17 -4 -20 -9z"/>
<path d="M2550 2880 c0 -5 5 -10 10 -10 6 0 10 5 10 10 0 6 -4 10 -10 10 -5 0
-10 -4 -10 -10z"/>
<path d="M2713 2860 c0 -23 3 -28 9 -16 5 9 5 23 0 32 -6 12 -9 7 -9 -16z"/>
<path d="M1526 2865 c-3 -8 -1 -15 4 -15 6 0 10 7 10 15 0 8 -2 15 -4 15 -2 0
-6 -7 -10 -15z"/>
<path d="M1660 2865 c0 -8 4 -15 10 -15 5 0 7 7 4 15 -4 8 -8 15 -10 15 -2 0
-4 -7 -4 -15z"/>
<path d="M1910 2870 c0 -6 7 -10 15 -10 8 0 15 2 15 4 0 2 -7 6 -15 10 -8 3
-15 1 -15 -4z"/>
<path d="M2482 2860 c0 -14 2 -19 5 -12 2 6 2 18 0 25 -3 6 -5 1 -5 -13z"/>
<path d="M2512 2860 c0 -14 2 -19 5 -12 2 6 2 18 0 25 -3 6 -5 1 -5 -13z"/>
<path d="M1480 2854 c0 -8 -4 -13 -9 -9 -6 3 -14 -3 -20 -12 -9 -17 -11 -17
-25 2 -8 11 -16 16 -16 10 0 -5 -5 -3 -10 5 -7 11 -10 11 -10 2 0 -7 -5 -10
-12 -6 -6 4 -8 3 -5 -4 4 -5 15 -9 25 -8 9 2 23 -4 30 -13 11 -15 13 -14 25 1
8 10 17 15 20 12 3 -3 10 4 17 15 7 14 7 21 0 21 -5 0 -10 -7 -10 -16z"/>
<path d="M1572 2853 c2 -11 12 -17 28 -17 16 0 26 6 28 17 2 9 -1 17 -7 17 -6
0 -8 -6 -5 -13 3 -8 -3 -13 -16 -13 -13 0 -19 5 -16 13 3 7 1 13 -5 13 -6 0
-9 -8 -7 -17z"/>
<path d="M1706 2855 c4 -8 8 -15 10 -15 2 0 4 7 4 15 0 8 -4 15 -10 15 -5 0
-7 -7 -4 -15z"/>
<path d="M1750 2861 c0 -6 4 -13 10 -16 6 -3 7 1 4 9 -7 18 -14 21 -14 7z"/>
<path d="M1816 2855 c-7 -18 17 -31 35 -19 9 5 10 2 6 -9 -3 -10 -2 -17 4 -17
6 0 9 8 7 18 -2 11 -11 16 -26 14 -16 -2 -20 1 -16 12 3 9 4 16 1 16 -3 0 -8
-7 -11 -15z"/>
<path d="M1865 2860 c3 -5 11 -10 16 -10 6 0 7 5 4 10 -3 6 -11 10 -16 10 -6
0 -7 -4 -4 -10z"/>
<path d="M2590 2863 c5 -2 10 -9 10 -14 0 -6 -4 -8 -8 -5 -5 3 -16 -4 -25 -15
-9 -10 -13 -19 -7 -19 5 0 13 7 18 16 5 9 13 15 18 15 14 -1 11 22 -4 25 -7 1
-8 0 -2 -3z"/>
<path d="M1553 2824 c0 -17 2 -22 7 -13 5 6 6 18 3 26 -8 19 -10 16 -10 -13z"/>
<path d="M1637 2837 c-3 -8 -2 -20 3 -26 5 -9 8 -4 8 13 0 29 -3 32 -11 13z"/>
<path d="M1739 2835 c22 -43 30 -51 28 -28 0 12 -3 20 -6 18 -2 -3 -10 3 -18
13 -13 16 -13 15 -4 -3z"/>
<path d="M1894 2835 c-3 -8 -3 -18 0 -24 4 -5 -2 -12 -11 -15 -15 -4 -15 -5 1
-3 14 1 20 10 20 30 2 30 -2 34 -10 12z"/>
<path d="M1980 2832 c6 -12 15 -20 20 -17 4 3 11 0 13 -5 4 -7 5 -6 3 0 -1 7
-5 10 -8 8 -4 -2 -14 6 -23 17 -16 19 -16 19 -5 -3z"/>
<path d="M2437 2836 c-3 -8 0 -22 7 -32 10 -13 15 -14 21 -4 5 9 4 11 -3 6
-12 -7 -16 5 -13 32 2 16 -6 15 -12 -2z"/>
<path d="M2739 2843 c-1 -5 -1 -15 0 -23 1 -9 -7 -16 -19 -17 -11 -1 -18 2
-16 6 3 4 0 13 -5 21 -7 11 -8 8 -6 -10 5 -34 52 -36 51 -2 0 15 5 22 18 22
12 0 16 -4 12 -12 -4 -7 -3 -8 5 -4 6 4 9 12 6 17 -7 11 -45 12 -46 2z"/>
<path d="M1333 2825 c0 -8 4 -12 9 -9 4 3 8 0 8 -6 0 -6 5 -8 10 -5 6 3 10 11
10 17 0 6 -3 8 -7 5 -3 -4 -11 -2 -18 3 -8 7 -12 5 -12 -5z"/>
<path d="M1518 2823 c7 -3 16 -2 19 1 4 3 -2 6 -13 5 -11 0 -14 -3 -6 -6z"/>
<path d="M1791 2820 c-9 -5 -4 -7 13 -7 29 0 32 2 13 10 -8 3 -20 2 -26 -3z"/>
<path d="M2490 2825 c0 -8 29 -12 39 -5 9 5 4 8 -13 8 -14 0 -26 -2 -26 -3z"/>
<path d="M2660 2815 c-10 -12 -9 -16 4 -21 9 -3 14 -10 11 -14 -3 -5 2 -13 11
-18 9 -5 15 -13 14 -18 -1 -5 3 -9 10 -10 6 -2 7 -1 0 3 -5 2 -8 9 -4 14 3 5
-2 12 -10 15 -9 3 -13 10 -10 15 3 5 -2 12 -11 15 -12 5 -13 9 -4 20 6 8 9 14
6 14 -2 0 -10 -7 -17 -15z"/>
<path d="M1590 2809 c0 -5 -6 -7 -12 -3 -7 4 -10 3 -5 -1 11 -13 45 -16 52 -5
4 6 -1 7 -11 3 -12 -4 -15 -3 -10 5 4 7 2 12 -3 12 -6 0 -11 -5 -11 -11z"/>
<path d="M2415 2810 c6 -10 1 -11 -21 -7 -27 6 -27 6 -6 -5 26 -13 55 3 31 17
-8 6 -10 4 -4 -5z"/>
<path d="M1380 2806 c0 -2 7 -6 15 -10 8 -3 15 -1 15 4 0 6 -7 10 -15 10 -8 0
-15 -2 -15 -4z"/>
<path d="M1455 2801 c-8 -8 -5 -40 4 -45 4 -3 6 6 3 21 -3 15 -1 23 5 20 5 -3
15 -2 23 3 11 7 9 9 -8 7 -13 -1 -25 -3 -27 -6z"/>
<path d="M1716 2799 c3 -5 10 -7 15 -4 5 4 9 -3 9 -15 0 -13 -4 -19 -12 -14
-7 5 -8 3 -3 -5 10 -17 28 1 23 24 -1 10 -11 19 -21 21 -9 1 -15 -2 -11 -7z"/>
<path d="M1956 2799 c3 -5 9 -7 14 -4 5 3 11 -3 14 -12 4 -15 5 -15 3 1 -1 11
-10 20 -20 22 -9 1 -15 -2 -11 -7z"/>
<path d="M2489 2804 c6 -3 7 -12 4 -20 -3 -8 -1 -14 5 -14 14 0 8 33 -7 36 -6
1 -7 0 -2 -2z"/>
<path d="M2525 2799 c-5 -8 -4 -10 3 -5 8 5 12 -1 12 -14 0 -12 -4 -19 -9 -15
-5 3 -12 1 -15 -4 -4 -5 2 -8 11 -7 10 2 20 11 21 21 5 23 -13 41 -23 24z"/>
<path d="M2757 2795 c-8 -19 12 -30 26 -16 9 9 8 11 -6 5 -13 -5 -16 -2 -11
10 3 9 4 16 1 16 -3 0 -7 -7 -10 -15z"/>
<path d="M1418 2777 c-3 -19 -2 -25 4 -19 6 6 8 18 6 28 -3 14 -5 12 -10 -9z"/>
<path d="M1801 2782 c-1 -13 -5 -20 -11 -17 -6 3 -13 -1 -16 -9 -3 -9 -9 -14
-13 -11 -4 2 -8 -3 -8 -12 0 -13 4 -12 17 5 10 12 20 18 24 15 8 -8 19 24 13
39 -3 7 -6 3 -6 -10z"/>
<path d="M1830 2790 c0 -5 7 -7 15 -4 8 4 15 8 15 10 0 2 -7 4 -15 4 -8 0 -15
-4 -15 -10z"/>
<path d="M1330 2782 c0 -5 7 -9 15 -9 8 0 12 4 9 9 -3 4 -9 8 -15 8 -5 0 -9
-4 -9 -8z"/>
<path d="M1373 2776 c3 -8 2 -17 -4 -20 -5 -2 -4 -3 2 -2 15 3 21 36 7 36 -6
0 -8 -6 -5 -14z"/>
<path d="M1494 2773 c2 -9 8 -18 15 -19 6 -1 7 0 2 2 -6 3 -7 12 -4 20 3 8 1
14 -5 14 -6 0 -9 -8 -8 -17z"/>
<path d="M1525 2780 c-3 -6 1 -7 9 -4 18 7 21 14 7 14 -6 0 -13 -4 -16 -10z"/>
<path d="M1545 2768 l-20 -21 23 12 c12 6 22 16 22 21 0 13 -2 12 -25 -12z"/>
<path d="M1650 2786 c0 -2 7 -7 16 -10 8 -3 12 -2 9 4 -6 10 -25 14 -25 6z"/>
<path d="M1693 2776 c3 -8 2 -17 -4 -20 -5 -2 -4 -3 2 -2 15 3 21 36 7 36 -6
0 -8 -6 -5 -14z"/>
<path d="M1900 2780 c-9 -6 -10 -10 -3 -10 6 0 15 5 18 10 8 12 4 12 -15 0z"/>
<path d="M1937 2773 c5 -12 3 -14 -7 -8 -9 5 -11 4 -6 -4 4 -6 12 -9 17 -6 12
8 12 35 -1 35 -5 0 -6 -7 -3 -17z"/>
<path d="M2375 2773 c1 -12 10 -17 24 -16 15 2 20 -1 15 -9 -4 -7 -3 -8 5 -4
18 12 2 28 -21 20 -13 -4 -18 -2 -14 4 3 6 2 13 -3 16 -5 4 -8 -2 -6 -11z"/>
<path d="M2715 2770 c3 -5 8 -10 11 -10 2 0 4 5 4 10 0 6 -5 10 -11 10 -5 0
-7 -4 -4 -10z"/>
<path d="M1575 2761 c-3 -5 0 -13 6 -17 8 -4 9 -3 5 4 -5 8 1 12 14 12 13 0
19 -4 14 -12 -4 -7 -3 -8 5 -4 16 10 4 26 -19 26 -10 0 -21 -4 -25 -9z"/>
<path d="M1641 2752 c-6 -12 -6 -23 0 -33 8 -12 10 -12 8 1 -3 30 1 41 13 34
7 -4 8 -3 4 4 -10 16 -14 15 -25 -6z"/>
<path d="M1840 2766 c0 -2 7 -7 16 -10 8 -3 12 -2 9 4 -6 10 -25 14 -25 6z"/>
<path d="M1957 2757 c-3 -8 -2 -20 3 -26 5 -9 8 -4 8 13 0 29 -3 32 -11 13z"/>
<path d="M2441 2752 c-6 -12 -6 -23 0 -33 8 -12 10 -12 8 1 -3 30 1 41 13 34
7 -4 8 -3 4 4 -10 16 -14 15 -25 -6z"/>
<path d="M1335 2751 c-6 -11 13 -26 22 -17 4 3 1 6 -6 6 -7 0 -9 5 -6 10 3 6
4 10 1 10 -3 0 -7 -4 -11 -9z"/>
<path d="M1877 2747 c-3 -8 -2 -20 3 -26 5 -9 8 -4 8 13 0 29 -3 32 -11 13z"/>
<path d="M2330 2754 c0 -2 9 -8 20 -14 11 -6 20 -7 20 -2 0 6 -9 12 -20 15
-11 3 -20 3 -20 1z"/>
<path d="M1381 2740 c-9 -5 -4 -7 13 -7 29 0 32 2 13 10 -8 3 -20 2 -26 -3z"/>
<path d="M1471 2740 c-9 -5 -4 -7 13 -7 29 0 32 2 13 10 -8 3 -20 2 -26 -3z"/>
<path d="M1553 2729 c-2 -23 3 -25 10 -4 4 8 3 16 -1 19 -4 3 -9 -4 -9 -15z"/>
<path d="M1701 2740 c-9 -5 -4 -7 13 -7 29 0 32 2 13 10 -8 3 -20 2 -26 -3z"/>
<path d="M1992 2736 c7 -8 15 -12 17 -11 5 6 -10 25 -20 25 -5 0 -4 -6 3 -14z"/>
<path d="M2730 2741 c0 -5 11 -8 25 -8 30 0 28 6 -4 12 -11 2 -21 0 -21 -4z"/>
<path d="M1933 2735 c4 -5 -3 -15 -15 -22 -13 -7 -18 -12 -12 -13 5 0 18 6 29
13 15 12 16 15 4 22 -8 5 -10 4 -6 0z"/>
<path d="M1430 2720 c0 -5 5 -10 10 -10 6 0 10 5 10 10 0 6 -4 10 -10 10 -5 0
-10 -4 -10 -10z"/>
<path d="M1590 2720 c0 -5 5 -10 10 -10 6 0 10 5 10 10 0 6 -4 10 -10 10 -5 0
-10 -4 -10 -10z"/>
<path d="M1773 2717 c-3 -5 -2 -11 1 -14 3 -4 6 -1 6 6 0 7 4 10 8 7 4 -2 14
-1 22 4 11 7 9 9 -8 7 -13 -1 -26 -5 -29 -10z"/>
<path d="M1836 2719 c3 -5 9 -7 14 -4 4 3 11 0 13 -5 3 -6 4 -5 3 1 -1 7 -10
13 -19 15 -9 1 -15 -2 -11 -7z"/>
<path d="M2335 2719 c-4 -6 -4 -13 -1 -16 3 -4 6 -1 6 6 0 7 5 9 12 5 7 -4 8
-3 4 4 -9 15 -13 15 -21 1z"/>
<path d="M2380 2726 c0 -2 7 -6 15 -10 8 -3 15 -1 15 4 0 6 -7 10 -15 10 -8 0
-15 -2 -15 -4z"/>
<path d="M2619 2725 c-8 -34 -1 -50 19 -49 15 0 21 -4 18 -13 -3 -7 -1 -13 5
-13 6 0 9 8 7 18 -2 10 -11 16 -24 14 -14 -2 -20 3 -20 18 0 13 5 19 13 16 7
-3 13 -1 13 4 0 10 -29 14 -31 5z"/>
<path d="M1361 2713 c-1 -6 -4 -20 -7 -30 -5 -17 -5 -17 6 0 6 10 9 23 6 30
-3 9 -5 9 -5 0z"/>
<path d="M1390 2715 c0 -5 5 -17 10 -25 5 -8 10 -10 10 -5 0 6 -5 17 -10 25
-5 8 -10 11 -10 5z"/>
<path d="M1481 2715 c-1 -17 17 -38 33 -41 9 -1 13 2 10 8 -3 5 -9 7 -12 3 -3
-3 -12 5 -19 17 -7 13 -12 19 -12 13z"/>
<path d="M1576 2701 c3 -13 2 -21 -3 -18 -5 3 -15 1 -23 -4 -12 -7 -10 -8 7
-6 31 4 37 13 23 34 -10 16 -10 15 -4 -6z"/>
<path d="M1619 2710 c-5 -29 -2 -33 21 -37 18 -2 21 -1 10 6 -8 5 -18 7 -23 4
-5 -3 -6 4 -2 16 3 11 4 21 1 21 -3 0 -7 -4 -7 -10z"/>
<path d="M1705 2701 c-3 -12 -10 -19 -15 -16 -5 3 -11 1 -14 -4 -4 -5 1 -8 10
-7 17 3 40 34 31 43 -3 2 -8 -5 -12 -16z"/>
<path d="M2481 2704 c0 -11 3 -14 6 -6 3 7 2 16 -1 19 -3 4 -6 -2 -5 -13z"/>
<path d="M2506 2703 c-6 -14 -5 -15 5 -6 7 7 10 15 7 18 -3 3 -9 -2 -12 -12z"/>
<path d="M2721 2703 c-1 -13 -7 -22 -13 -20 -7 1 -13 -7 -13 -18 0 -11 -9 -23
-20 -27 -17 -6 -16 -7 5 -5 20 2 24 7 22 26 -2 15 0 21 7 16 13 -7 25 18 18
37 -3 7 -6 3 -6 -9z"/>
<path d="M2754 2708 c4 -19 23 -20 30 -2 5 14 4 15 -8 5 -10 -8 -16 -9 -19 -1
-3 6 -4 5 -3 -2z"/>
<path d="M1655 2700 c-3 -5 -1 -10 4 -10 6 0 11 5 11 10 0 6 -2 10 -4 10 -3 0
-8 -4 -11 -10z"/>
<path d="M1745 2700 c-3 -5 -1 -10 4 -10 6 0 11 5 11 10 0 6 -2 10 -4 10 -3 0
-8 -4 -11 -10z"/>
<path d="M1820 2700 c8 -5 20 -10 25 -10 6 0 3 5 -5 10 -8 5 -19 10 -25 10 -5
0 -3 -5 5 -10z"/>
<path d="M1938 2698 c-9 -5 -6 -7 9 -5 12 2 25 6 28 8 8 9 -23 6 -37 -3z"/>
<path d="M2026 2695 c10 -8 23 -15 28 -15 6 0 1 7 -10 15 -10 8 -23 15 -28 15
-6 0 -1 -7 10 -15z"/>
<path d="M2275 2700 c-3 -6 1 -7 9 -4 18 7 21 14 7 14 -6 0 -13 -4 -16 -10z"/>
<path d="M2367 2704 c-4 -4 -7 -12 -7 -18 0 -6 5 -4 10 4 9 13 11 13 21 0 9
-12 10 -12 7 -1 -5 17 -21 25 -31 15z"/>
<path d="M2666 2698 c3 -4 9 -8 15 -8 5 0 9 4 9 8 0 5 -7 9 -15 9 -8 0 -12 -4
-9 -9z"/>
<path d="M2316 2687 c3 -10 9 -15 12 -12 3 3 0 11 -7 18 -10 9 -11 8 -5 -6z"/>
<path d="M2435 2689 c-4 -6 -5 -12 -2 -15 2 -3 7 2 10 11 7 17 1 20 -8 4z"/>
<path d="M1365 2664 c-9 -14 -15 -27 -13 -30 2 -2 12 10 22 26 21 37 15 40 -9
4z"/>
<path d="M1473 2664 c0 -17 2 -22 7 -13 5 6 6 18 3 26 -8 19 -10 16 -10 -13z"/>
<path d="M1717 2677 c-3 -8 -2 -20 3 -26 5 -9 8 -4 8 13 0 29 -3 32 -11 13z"/>
<path d="M1820 2673 c6 -13 15 -23 20 -23 5 0 14 10 20 23 11 21 10 21 -4 3
-16 -20 -16 -20 -32 0 -14 18 -15 18 -4 -3z"/>
<path d="M1976 2682 c-3 -5 6 -7 21 -4 15 3 23 1 20 -5 -3 -5 -1 -15 4 -23 7
-11 8 -8 6 10 -4 25 -39 41 -51 22z"/>
<path d="M1953 2654 c0 -17 2 -22 7 -13 5 6 6 18 3 26 -8 19 -10 16 -10 -13z"/>
<path d="M2070 2672 c0 -8 -5 -10 -12 -6 -7 4 -10 3 -5 -1 12 -14 45 -16 53
-3 5 7 3 8 -6 3 -7 -4 -16 -2 -21 6 -7 11 -9 11 -9 1z"/>
<path d="M1581 2653 c-5 -10 -13 -16 -18 -13 -4 3 -9 -6 -10 -20 l-2 -25 8 25
c5 14 10 21 10 15 1 -5 8 -1 16 9 15 20 15 20 30 0 8 -10 15 -14 16 -9 0 6 5
-1 10 -15 l8 -25 -2 25 c-1 14 -6 23 -11 22 -5 -2 -13 3 -18 12 -12 21 -25 20
-37 -1z"/>
<path d="M2230 2660 c-13 -8 -12 -10 3 -10 9 0 17 5 17 10 0 12 -1 12 -20 0z"/>
<path d="M2340 2665 c0 -8 29 -12 39 -5 9 5 4 8 -13 8 -14 0 -26 -2 -26 -3z"/>
<path d="M2580 2662 c0 -5 7 -9 15 -9 8 0 15 4 15 9 0 4 -7 8 -15 8 -8 0 -15
-4 -15 -8z"/>
<path d="M2730 2661 c0 -5 11 -8 25 -8 30 0 28 6 -4 12 -11 2 -21 0 -21 -4z"/>
<path d="M1910 2650 c-8 -5 -10 -10 -5 -10 6 0 17 5 25 10 8 5 11 10 5 10 -5
0 -17 -5 -25 -10z"/>
<path d="M2119 2658 c-5 -15 -9 -61 -5 -58 6 7 16 60 10 60 -2 0 -4 -1 -5 -2z"/>
<path d="M1373 2633 c-3 -8 -3 -17 1 -20 3 -4 6 1 6 11 0 9 4 15 9 11 5 -3 12
-2 15 3 3 5 -2 9 -10 9 -9 0 -18 -7 -21 -14z"/>
<path d="M1497 2639 c7 -7 15 -10 18 -7 3 3 -2 9 -12 12 -14 6 -15 5 -6 -5z"/>
<path d="M1690 2640 c-9 -6 -10 -10 -3 -10 6 0 15 5 18 10 8 12 4 12 -15 0z"/>
<path d="M1796 2639 c3 -5 9 -7 14 -4 5 3 11 -3 14 -12 4 -15 5 -15 3 1 -1 11
-10 20 -20 22 -9 1 -15 -2 -11 -7z"/>
<path d="M1849 2628 c-6 -12 -6 -18 1 -18 5 0 10 7 10 16 0 8 4 13 9 9 5 -3
12 -2 15 3 3 5 -2 9 -10 9 -8 0 -19 -9 -25 -19z"/>
<path d="M1974 2638 c-4 -5 -3 -12 0 -15 3 -4 6 -1 6 5 0 6 7 9 15 6 8 -4 15
-2 15 3 0 12 -29 13 -36 1z"/>
<path d="M2197 2637 c-3 -8 -2 -20 3 -26 5 -9 8 -4 8 13 0 29 -3 32 -11 13z"/>
<path d="M2260 2646 c0 -2 7 -6 15 -10 8 -3 15 -1 15 4 0 6 -7 10 -15 10 -8 0
-15 -2 -15 -4z"/>
<path d="M2335 2639 c-4 -6 -5 -12 -2 -15 2 -3 7 2 10 11 7 17 1 20 -8 4z"/>
<path d="M2379 2648 c-6 -21 -5 -37 2 -32 5 3 7 9 4 14 -3 4 1 11 7 13 10 4
10 6 1 6 -7 1 -13 0 -14 -1z"/>
<path d="M2410 2646 c0 -3 9 -10 20 -16 11 -6 20 -8 20 -6 0 3 -9 10 -20 16
-11 6 -20 8 -20 6z"/>
<path d="M2559 2643 c0 -5 -3 -19 -5 -32 -2 -14 -2 -22 1 -19 8 8 17 58 10 58
-3 0 -5 -3 -6 -7z"/>
<path d="M2614 2638 c-4 -6 -3 -8 4 -4 5 3 12 1 14 -6 3 -8 6 -9 11 -1 4 6 0
13 -8 17 -8 3 -17 0 -21 -6z"/>
<path d="M2300 2625 c0 -8 4 -15 10 -15 5 0 7 7 4 15 -4 8 -8 15 -10 15 -2 0
-4 -7 -4 -15z"/>
<path d="M2706 2624 c-11 -8 -16 -14 -10 -14 13 0 39 18 34 24 -3 2 -14 -2
-24 -10z"/>
<path d="M2753 2618 c1 -16 5 -28 9 -28 10 0 9 9 -2 35 -8 17 -8 16 -7 -7z"/>
<path d="M1333 2615 c0 -7 6 -11 14 -8 7 3 13 6 13 8 0 2 -6 5 -13 8 -8 3 -14
-1 -14 -8z"/>
<path d="M1410 2615 c0 -8 2 -15 4 -15 2 0 6 7 10 15 3 8 1 15 -4 15 -6 0 -10
-7 -10 -15z"/>
<path d="M1440 2615 c-19 -22 -8 -25 13 -3 9 10 13 18 8 18 -5 0 -14 -7 -21
-15z"/>
<path d="M1471 2612 c-16 -16 -22 -64 -8 -55 4 3 7 12 5 21 -2 10 3 22 12 29
8 6 13 14 10 16 -3 3 -11 -2 -19 -11z"/>
<path d="M1751 2611 c13 -11 27 -17 31 -14 11 6 10 33 -2 33 -5 0 -7 -8 -3
-17 6 -17 5 -17 -14 0 -11 9 -23 17 -27 17 -5 0 2 -9 15 -19z"/>
<path d="M1890 2616 c0 -20 13 -27 30 -14 12 8 11 9 -4 4 -13 -5 -17 -2 -12 9
3 8 1 15 -4 15 -6 0 -10 -6 -10 -14z"/>
<path d="M2072 2616 c7 -8 15 -12 17 -11 5 6 -10 25 -20 25 -5 0 -4 -6 3 -14z"/>
<path d="M2135 2620 c-3 -6 1 -7 10 -4 11 5 14 2 9 -12 -5 -15 -4 -16 4 -4 11
15 7 30 -8 30 -5 0 -12 -4 -15 -10z"/>
<path d="M2257 2613 c5 -12 3 -14 -7 -8 -9 5 -11 4 -6 -4 4 -6 12 -9 17 -6 12
8 12 35 -1 35 -5 0 -6 -7 -3 -17z"/>
<path d="M2396 2615 c-9 -26 -7 -32 5 -12 6 10 9 21 6 23 -2 3 -7 -2 -11 -11z"/>
<path d="M1510 2610 c-13 -8 -12 -10 3 -10 9 0 17 5 17 10 0 12 -1 12 -20 0z"/>
<path d="M1670 2610 c0 -6 7 -10 15 -10 8 0 15 2 15 4 0 2 -7 6 -15 10 -8 3
-15 1 -15 -4z"/>
<path d="M2041 2612 c-1 -7 -5 -11 -9 -8 -5 3 -16 -4 -25 -15 -9 -10 -12 -19
-7 -19 6 0 13 6 16 14 3 8 14 13 25 11 10 -2 22 1 25 7 4 6 3 8 -4 4 -5 -3
-13 0 -15 6 -4 10 -6 10 -6 0z"/>
<path d="M2615 2610 c6 -10 4 -12 -8 -7 -10 3 -17 2 -17 -3 0 -13 27 -13 35
-1 3 5 0 13 -6 17 -8 5 -9 3 -4 -6z"/>
<path d="M1391 2600 c3 -30 -1 -41 -13 -34 -7 4 -8 3 -4 -4 10 -16 14 -15 25
6 6 12 6 23 0 33 -8 12 -10 12 -8 -1z"/>
<path d="M1590 2600 c0 -5 5 -10 10 -10 6 0 10 5 10 10 0 6 -4 10 -10 10 -5 0
-10 -4 -10 -10z"/>
<path d="M1721 2604 c11 -3 15 -12 12 -23 -3 -10 -1 -21 4 -24 5 -3 8 7 7 21
0 19 -7 28 -20 29 -14 1 -15 1 -3 -3z"/>
<path d="M1797 2596 c-3 -8 0 -22 7 -32 10 -13 15 -14 21 -4 5 9 4 11 -3 6
-12 -7 -16 5 -13 32 2 16 -6 15 -12 -2z"/>
<path d="M1873 2584 c0 -17 2 -22 7 -13 5 6 6 18 3 26 -8 19 -10 16 -10 -13z"/>
<path d="M1975 2600 c6 -10 -6 -14 -35 -11 -13 2 -13 0 -1 -8 17 -11 55 5 46
20 -4 5 -8 9 -11 9 -3 0 -2 -4 1 -10z"/>
<path d="M2175 2601 c-9 -15 29 -31 46 -20 12 8 12 10 -1 8 -29 -3 -41 1 -35
11 3 6 4 10 1 10 -3 0 -7 -4 -11 -9z"/>
<path d="M2277 2597 c-3 -8 -2 -20 3 -26 5 -9 8 -4 8 13 0 29 -3 32 -11 13z"/>
<path d="M2374 2581 c2 -14 9 -27 17 -29 11 -3 12 -2 1 6 -8 5 -13 12 -12 16
1 4 -1 12 -4 19 -2 6 -3 1 -2 -12z"/>
<path d="M2572 2580 c0 -14 2 -19 5 -12 2 6 2 18 0 25 -3 6 -5 1 -5 -13z"/>
<path d="M2637 2593 c-4 -3 -7 -11 -7 -17 0 -6 5 -5 12 2 6 6 9 14 7 17 -3 3
-9 2 -12 -2z"/>
<path d="M2673 2585 c0 -8 4 -15 9 -15 4 0 8 7 8 15 0 8 -4 15 -8 15 -5 0 -9
-7 -9 -15z"/>
<path d="M2710 2590 c0 -5 7 -10 16 -10 8 0 13 -4 9 -9 -3 -6 5 -15 17 -21 21
-10 21 -10 6 3 -10 8 -15 17 -12 20 3 3 -4 10 -15 17 -14 7 -21 7 -21 0z"/>
<path d="M1335 2581 c-3 -5 0 -13 6 -17 7 -4 9 -3 5 4 -3 6 3 12 16 15 23 4
23 4 1 6 -12 0 -24 -3 -28 -8z"/>
<path d="M1490 2575 c0 -8 2 -15 4 -15 2 0 6 7 10 15 3 8 1 15 -4 15 -6 0 -10
-7 -10 -15z"/>
<path d="M1530 2585 c0 -8 29 -12 39 -5 9 5 4 8 -13 8 -14 0 -26 -2 -26 -3z"/>
<path d="M1620 2585 c0 -8 29 -12 39 -5 9 5 4 8 -13 8 -14 0 -26 -2 -26 -3z"/>
<path d="M1696 2575 c4 -8 8 -15 10 -15 2 0 4 7 4 15 0 8 -4 15 -10 15 -5 0
-7 -7 -4 -15z"/>
<path d="M1828 2583 c6 -2 18 -2 25 0 6 3 1 5 -13 5 -14 0 -19 -2 -12 -5z"/>
<path d="M2070 2580 c0 -6 7 -13 15 -16 23 -9 6 -26 -18 -19 -20 5 -20 5 -3
-6 14 -9 21 -8 32 3 12 12 11 16 -6 31 -11 9 -20 12 -20 7z"/>
<path d="M2090 2585 c0 -8 29 -12 39 -5 9 5 4 8 -13 8 -14 0 -26 -2 -26 -3z"/>
<path d="M2318 2583 c12 -2 20 -8 17 -13 -3 -5 5 -14 17 -20 20 -9 21 -9 7 2
-9 7 -16 18 -15 23 1 6 -10 11 -24 12 -22 1 -23 1 -2 -4z"/>
<path d="M2510 2582 c0 -5 7 -9 15 -9 8 0 15 4 15 9 0 4 -7 8 -15 8 -8 0 -15
-4 -15 -8z"/>
<path d="M2777 2575 c-4 -8 -3 -16 1 -19 4 -3 9 4 9 15 2 23 -3 25 -10 4z"/>
<path d="M1415 2571 c-6 -11 13 -26 22 -17 4 3 1 6 -6 6 -7 0 -9 5 -6 10 3 6
4 10 1 10 -3 0 -7 -4 -11 -9z"/>
<path d="M1774 2572 c3 -5 0 -13 -6 -15 -9 -4 -10 -6 -1 -6 17 -1 25 16 12 25
-7 4 -9 3 -5 -4z"/>
<path d="M1895 2571 c-9 -15 13 -23 32 -11 15 9 14 10 -6 4 -16 -4 -21 -3 -17
5 4 6 5 11 2 11 -3 0 -7 -4 -11 -9z"/>
<path d="M2232 2571 c-10 -6 -9 -10 7 -14 12 -3 24 0 28 5 3 6 1 8 -5 4 -5 -3
-12 -2 -14 4 -2 5 -9 6 -16 1z"/>
<path d="M1510 2561 c0 -6 6 -8 14 -5 9 3 13 -2 12 -18 -1 -14 5 -24 17 -26 9
-2 17 1 17 7 0 6 -6 8 -14 5 -9 -3 -13 2 -12 18 1 14 -5 24 -16 26 -10 2 -18
-1 -18 -7z"/>
<path d="M1573 2563 c4 -6 2 -13 -5 -15 -8 -3 -6 -6 4 -10 17 -7 19 15 3 29
-4 4 -5 3 -2 -4z"/>
<path d="M1619 2568 c-8 -27 -5 -36 9 -30 10 4 12 7 4 10 -7 2 -10 8 -6 13 3
5 3 9 0 9 -3 0 -6 -1 -7 -2z"/>
<path d="M1657 2563 c-2 -5 -3 -16 -1 -26 2 -13 -2 -17 -12 -13 -8 3 -14 1
-14 -5 0 -6 8 -9 18 -7 11 2 17 12 16 26 -1 16 3 21 12 18 8 -3 14 -1 14 4 0
12 -27 13 -33 3z"/>
<path d="M1964 2559 c-4 -7 -3 -9 4 -5 6 3 13 -2 15 -11 4 -16 5 -16 6 -1 1
21 -15 32 -25 17z"/>
<path d="M2030 2560 c0 -5 7 -7 15 -4 8 4 15 8 15 10 0 2 -7 4 -15 4 -8 0 -15
-4 -15 -10z"/>
<path d="M2134 2562 c3 -5 1 -12 -5 -14 -7 -2 -10 -9 -8 -16 3 -8 9 -5 16 7 9
15 10 22 1 27 -6 4 -8 3 -4 -4z"/>
<path d="M2173 2555 c-3 -9 -3 -19 1 -22 3 -4 6 1 6 11 0 10 5 14 12 10 7 -4
8 -3 4 4 -10 16 -15 15 -23 -3z"/>
<path d="M2550 2561 c0 -6 4 -13 10 -16 6 -3 7 1 4 9 -7 18 -14 21 -14 7z"/>
<path d="M2590 2561 c0 -6 6 -8 14 -5 9 4 13 -2 12 -18 -1 -18 4 -23 22 -22
15 0 21 -4 18 -13 -3 -7 -1 -13 5 -13 6 0 9 8 7 18 -2 11 -11 16 -24 14 -17
-2 -21 2 -20 20 1 14 -5 24 -16 26 -10 2 -18 -1 -18 -7z"/>
<path d="M2654 2562 c3 -5 0 -13 -6 -15 -9 -4 -10 -6 -1 -6 17 -1 25 16 12 25
-7 4 -9 3 -5 -4z"/>
<path d="M2006 2545 c-9 -26 -7 -32 5 -12 6 10 9 21 6 23 -2 3 -7 -2 -11 -11z"/>
<path d="M1336 2538 c3 -4 11 -5 19 -1 21 7 19 12 -4 10 -11 0 -18 -5 -15 -9z"/>
<path d="M1487 2530 c10 -11 19 -20 21 -20 1 0 -2 9 -8 20 -6 11 -15 20 -20
20 -6 0 -2 -9 7 -20z"/>
<path d="M1700 2530 c-6 -11 -9 -20 -8 -20 2 0 11 9 21 20 9 11 13 20 7 20 -5
0 -14 -9 -20 -20z"/>
<path d="M1833 2544 c3 -4 22 -8 43 -10 20 -2 34 -1 31 2 -3 4 -22 8 -43 10
-20 2 -34 1 -31 -2z"/>
<path d="M1936 2535 c4 -8 8 -15 10 -15 2 0 4 7 4 15 0 8 -4 15 -10 15 -5 0
-7 -7 -4 -15z"/>
<path d="M2210 2535 c0 -8 2 -15 4 -15 2 0 6 7 10 15 3 8 1 15 -4 15 -6 0 -10
-7 -10 -15z"/>
<path d="M2290 2540 c0 -5 5 -10 10 -10 6 0 10 5 10 10 0 6 -4 10 -10 10 -5 0
-10 -4 -10 -10z"/>
<path d="M2487 2539 c7 -7 15 -10 18 -7 3 3 -2 9 -12 12 -14 6 -15 5 -6 -5z"/>
<path d="M2530 2543 c5 -2 10 -9 10 -14 0 -6 -4 -8 -8 -5 -4 2 -14 0 -22 -5
-11 -7 -8 -8 10 -6 26 4 35 28 12 33 -7 1 -8 0 -2 -3z"/>
<path d="M2700 2546 c0 -2 7 -6 15 -10 8 -3 15 -1 15 4 0 6 -7 10 -15 10 -8 0
-15 -2 -15 -4z"/>
<path d="M1438 2533 c7 -3 16 -2 19 1 4 3 -2 6 -13 5 -11 0 -14 -3 -6 -6z"/>
<path d="M1748 2533 c7 -3 16 -2 19 1 4 3 -2 6 -13 5 -11 0 -14 -3 -6 -6z"/>
<path d="M1355 2519 c-11 -16 -1 -19 13 -3 7 8 8 14 3 14 -5 0 -13 -5 -16 -11z"/>
<path d="M1401 2524 c11 -3 15 -12 12 -23 -3 -10 -1 -21 4 -24 5 -3 8 7 7 21
0 19 -7 28 -20 29 -14 1 -15 1 -3 -3z"/>
<path d="M1473 2504 c0 -17 2 -22 7 -13 5 6 6 18 3 26 -8 19 -10 16 -10 -13z"/>
<path d="M1717 2517 c-3 -8 -2 -20 3 -26 5 -9 8 -4 8 13 0 29 -3 32 -11 13z"/>
<path d="M1779 2528 c-5 -18 -2 -55 4 -51 5 3 7 14 4 24 -3 11 1 20 12 22 14
4 14 5 -1 6 -10 0 -18 0 -19 -1z"/>
<path d="M1832 2516 c7 -8 15 -12 17 -11 5 6 -10 25 -20 25 -5 0 -4 -6 3 -14z"/>
<path d="M1910 2508 c-12 -22 -12 -22 6 -6 10 10 15 20 12 24 -4 3 -12 -5 -18
-18z"/>
<path d="M1957 2516 c-3 -8 0 -22 7 -32 10 -13 15 -14 21 -4 5 9 4 11 -3 6
-12 -7 -16 5 -13 32 2 16 -6 15 -12 -2z"/>
<path d="M2191 2520 c3 -30 -1 -41 -13 -34 -7 4 -8 3 -4 -4 10 -16 14 -15 25
6 6 12 6 23 0 33 -8 12 -10 12 -8 -1z"/>
<path d="M2230 2521 c0 -6 5 -13 12 -17 7 -5 8 -3 3 6 -6 10 -4 12 9 7 10 -4
15 -3 11 3 -8 13 -35 13 -35 1z"/>
<path d="M2339 2528 c-5 -18 -2 -55 4 -51 5 3 7 14 4 24 -3 11 1 20 12 22 14
4 14 5 -1 6 -10 0 -18 0 -19 -1z"/>
<path d="M2473 2523 c4 -6 2 -13 -5 -15 -8 -3 -6 -6 4 -10 17 -7 19 15 3 29
-4 4 -5 3 -2 -4z"/>
<path d="M2694 2515 c-3 -8 -3 -18 0 -24 4 -5 -2 -12 -11 -15 -15 -4 -15 -5 1
-3 14 1 20 10 20 30 2 30 -2 34 -10 12z"/>
<path d="M2758 2523 c13 -3 19 -9 16 -15 -4 -7 -2 -8 5 -4 17 11 3 26 -22 25
-22 -2 -22 -2 1 -6z"/>
<path d="M1581 2503 c-1 -16 -6 -20 -20 -16 -22 6 -37 -12 -20 -23 8 -5 9 -3
4 6 -6 10 -3 12 14 7 23 -6 37 12 28 35 -3 7 -6 3 -6 -9z"/>
<path d="M1614 2495 c1 -15 7 -19 25 -17 16 3 21 0 16 -9 -5 -8 -4 -10 4 -5
17 11 2 29 -20 23 -11 -3 -19 1 -22 12 -3 10 -4 9 -3 -4z"/>
<path d="M1877 2507 c-3 -8 -2 -20 3 -26 5 -9 8 -4 8 13 0 29 -3 32 -11 13z"/>
<path d="M2277 2507 c-3 -8 -2 -20 3 -26 5 -9 8 -4 8 13 0 29 -3 32 -11 13z"/>
<path d="M1376 2495 c4 -10 0 -13 -15 -10 -12 2 -19 0 -16 -5 9 -14 40 -4 43
13 2 10 -1 17 -7 17 -6 0 -8 -7 -5 -15z"/>
<path d="M1517 2503 c-4 -3 -7 -11 -7 -17 0 -6 5 -5 12 2 6 6 9 14 7 17 -3 3
-9 2 -12 -2z"/>
<path d="M1670 2501 c0 -5 5 -13 10 -16 6 -3 10 -2 10 4 0 5 -4 13 -10 16 -5
3 -10 2 -10 -4z"/>
<path d="M1812 2493 c2 -10 12 -18 23 -18 11 1 24 -4 28 -10 5 -6 7 -4 4 5 -2
8 -14 14 -26 14 -15 -1 -20 3 -17 12 3 8 1 14 -5 14 -6 0 -9 -8 -7 -17z"/>
<path d="M2010 2505 c0 -8 29 -12 39 -5 9 5 4 8 -13 8 -14 0 -26 -2 -26 -3z"/>
<path d="M2100 2505 c0 -8 29 -12 39 -5 9 5 4 8 -13 8 -14 0 -26 -2 -26 -3z"/>
<path d="M2370 2495 c0 -8 4 -15 8 -15 5 0 9 -7 9 -15 0 -8 -4 -15 -9 -15 -4
0 -8 -5 -8 -10 0 -6 8 -5 20 2 11 7 15 15 9 19 -6 3 0 9 13 13 l23 6 -25 15
c-32 18 -40 18 -40 0z m35 -13 c-3 -3 -11 0 -18 7 -9 10 -8 11 6 5 10 -3 15
-9 12 -12z"/>
<path d="M2541 2493 c-5 -10 -13 -16 -18 -13 -4 3 -9 -6 -10 -20 -2 -24 -2
-24 5 -2 4 13 11 23 15 22 4 0 15 6 23 15 9 8 11 15 5 15 -5 0 -14 -8 -20 -17z"/>
<path d="M2591 2500 c-9 -5 -4 -7 13 -7 29 0 32 2 13 10 -8 3 -20 2 -26 -3z"/>
<path d="M2737 2493 c5 -12 3 -14 -7 -8 -9 5 -11 4 -6 -4 4 -6 12 -9 17 -6 12
8 12 35 -1 35 -5 0 -6 -7 -3 -17z"/>
<path d="M1435 2490 c3 -5 8 -10 11 -10 2 0 4 5 4 10 0 6 -5 10 -11 10 -5 0
-7 -4 -4 -10z"/>
<path d="M1750 2489 c0 -5 5 -7 10 -4 6 3 10 8 10 11 0 2 -4 4 -10 4 -5 0 -10
-5 -10 -11z"/>
<path d="M1933 2495 c4 -5 -3 -15 -15 -22 -13 -7 -18 -12 -12 -13 5 0 18 6 29
13 15 12 16 15 4 22 -8 5 -10 4 -6 0z"/>
<path d="M2215 2490 c-8 -13 20 -24 36 -14 9 5 10 2 6 -9 -3 -10 -2 -17 4 -17
6 0 9 8 7 18 -2 11 -11 16 -27 14 -15 -2 -21 0 -17 7 4 6 5 11 2 11 -3 0 -8
-5 -11 -10z"/>
<path d="M2308 2493 c7 -3 16 -2 19 1 4 3 -2 6 -13 5 -11 0 -14 -3 -6 -6z"/>
<path d="M2009 2484 c6 -3 7 -12 4 -20 -3 -8 -1 -14 5 -14 14 0 8 33 -7 36 -6
1 -7 0 -2 -2z"/>
<path d="M2045 2479 c-5 -8 -4 -10 3 -5 8 5 12 -1 12 -14 0 -12 -4 -19 -9 -15
-5 3 -12 1 -15 -4 -4 -5 2 -8 11 -7 10 2 20 11 21 21 5 23 -13 41 -23 24z"/>
<path d="M2094 2475 c-8 -21 0 -38 19 -41 9 -1 15 2 11 7 -3 5 -10 7 -15 4 -5
-4 -9 3 -9 15 0 13 4 19 12 14 7 -4 8 -3 4 4 -10 16 -15 15 -22 -3z"/>
<path d="M2139 2488 c-6 -22 -5 -38 3 -38 6 0 8 6 5 14 -3 8 -1 17 6 20 9 3 9
5 0 5 -7 1 -13 0 -14 -1z"/>
<path d="M2556 2473 c-6 -14 -5 -15 5 -6 7 7 10 15 7 18 -3 3 -9 -2 -12 -12z"/>
<path d="M2757 2475 c-8 -19 12 -30 26 -16 9 9 8 11 -6 5 -13 -5 -16 -2 -11
10 3 9 4 16 1 16 -3 0 -7 -7 -10 -15z"/>
<path d="M2578 2458 c-13 -13 -27 -22 -32 -20 -4 1 -14 -2 -20 -8 -7 -5 -16
-7 -19 -3 -4 3 -17 -2 -29 -13 -19 -17 -21 -17 -15 -1 4 9 2 17 -3 17 -11 0
-13 -23 -3 -33 3 -4 15 1 25 10 18 16 18 16 12 0 -3 -9 -10 -17 -15 -17 -5 0
-9 -7 -9 -15 0 -7 -7 -18 -16 -23 -9 -5 -15 -13 -14 -18 1 -5 -3 -10 -8 -12
-5 -1 -8 5 -8 15 1 10 -3 19 -9 20 -5 1 -13 12 -17 25 -7 22 -7 22 -5 -2 2
-15 8 -24 16 -22 9 2 12 -4 8 -18 -3 -12 0 -23 7 -26 17 -7 18 -44 0 -44 -8 0
-12 -5 -9 -10 4 -6 10 -8 14 -6 4 3 6 -15 6 -40 -1 -26 4 -49 12 -55 19 -17
16 -27 -9 -32 -20 -4 -20 -4 4 -6 32 -1 45 -18 28 -34 -10 -9 -12 -8 -7 6 4 9
2 17 -4 17 -6 0 -9 -8 -7 -17 2 -11 11 -17 22 -15 10 2 26 -4 36 -13 10 -9 24
-14 29 -10 6 3 14 -1 17 -10 6 -14 8 -14 20 2 7 10 14 15 14 11 0 -4 16 0 35
8 32 13 35 13 36 -3 0 -11 3 -13 6 -5 3 7 0 19 -7 26 -7 10 -8 16 0 21 26 16
49 93 46 149 -4 46 -2 56 10 52 8 -3 14 -1 14 4 0 6 -7 10 -17 10 -9 0 -14 3
-10 6 3 4 0 13 -8 20 -8 8 -12 26 -9 42 4 23 3 25 -7 8 -11 -17 -12 -17 -28 8
-10 14 -21 23 -26 19 -4 -5 -5 0 -2 9 3 10 1 20 -5 24 -6 4 -8 3 -4 -4 3 -6 2
-13 -4 -17 -5 -3 -10 -1 -10 5 0 6 -4 8 -10 5 -17 -11 -11 7 8 21 9 7 14 14
10 14 -5 0 -18 -10 -30 -22z m12 -89 c11 -8 12 -12 3 -16 -18 -7 -16 -20 2
-20 8 0 12 4 9 9 -3 4 -1 8 4 8 12 0 34 -59 26 -71 -3 -5 -12 -6 -21 -1 -17
10 -73 -13 -73 -29 0 -5 -6 -8 -12 -6 -7 1 -13 -4 -13 -12 0 -8 6 -15 13 -17
7 -1 8 0 2 3 -5 2 -10 9 -10 14 0 6 5 7 10 4 6 -3 13 1 16 9 3 9 10 16 15 16
6 0 5 -9 -1 -20 -9 -18 -8 -20 15 -20 14 0 25 -6 25 -12 0 -9 4 -8 10 2 9 13
11 13 20 0 13 -20 13 -25 -5 -40 -8 -7 -12 -16 -10 -21 6 -8 -29 -31 -53 -35
-7 -1 -17 7 -22 19 -5 12 -9 18 -9 12 -1 -5 -8 1 -17 13 -8 12 -12 27 -9 32 4
6 3 16 -2 23 -8 10 -10 67 -3 75 1 1 4 7 5 12 1 6 4 12 5 15 1 3 3 9 4 14 1 9
47 50 56 51 3 0 12 -5 20 -11z"/>
<path d="M2556 2354 c-3 -9 -2 -22 2 -31 6 -10 9 -5 9 16 0 35 -2 38 -11 15z"/>
<path d="M2538 2304 c3 -15 1 -25 -5 -21 -5 3 -15 1 -23 -4 -11 -7 -8 -8 10
-6 26 4 39 32 22 49 -6 6 -8 0 -4 -18z"/>
<path d="M2575 2299 c-11 -16 -1 -19 13 -3 7 8 8 14 3 14 -5 0 -13 -5 -16 -11z"/>
<path d="M2554 2179 c-2 -35 5 -33 12 5 2 14 1 26 -3 26 -5 0 -9 -14 -9 -31z"/>
<path d="M2510 2180 c0 -6 7 -10 15 -10 8 0 15 2 15 4 0 2 -7 6 -15 10 -8 3
-15 1 -15 -4z"/>
<path d="M2580 2185 c0 -8 29 -12 39 -5 9 5 4 8 -13 8 -14 0 -26 -2 -26 -3z"/>
<path d="M2574 2155 c-3 -8 -4 -20 -2 -27 3 -7 7 -1 10 15 6 29 1 36 -8 12z"/>
<path d="M2630 2470 c0 -5 7 -7 15 -4 8 4 15 8 15 10 0 2 -7 4 -15 4 -8 0 -15
-4 -15 -10z"/>
<path d="M1336 2457 c3 -10 9 -15 12 -12 3 3 0 11 -7 18 -10 9 -11 8 -5 -6z"/>
<path d="M1385 2460 c-3 -5 -2 -10 4 -10 5 0 13 5 16 10 3 6 2 10 -4 10 -5 0
-13 -4 -16 -10z"/>
<path d="M1440 2460 c-8 -5 -12 -11 -10 -14 3 -2 14 2 24 10 22 15 10 19 -14
4z"/>
<path d="M1506 2456 c10 -8 21 -12 24 -10 5 6 -21 24 -34 24 -6 0 -1 -6 10
-14z"/>
<path d="M1680 2460 c-8 -5 -12 -11 -10 -14 3 -2 14 2 24 10 22 15 10 19 -14
4z"/>
<path d="M1746 2456 c10 -8 21 -12 24 -10 5 6 -21 24 -34 24 -6 0 -1 -6 10
-14z"/>
<path d="M1795 2460 c3 -5 11 -10 16 -10 6 0 7 5 4 10 -3 6 -11 10 -16 10 -6
0 -7 -4 -4 -10z"/>
<path d="M1980 2460 c-9 -6 -10 -10 -3 -10 6 0 15 5 18 10 8 12 4 12 -15 0z"/>
<path d="M2167 2459 c7 -7 15 -10 18 -7 3 3 -2 9 -12 12 -14 6 -15 5 -6 -5z"/>
<path d="M2300 2454 c0 -8 -4 -13 -8 -10 -4 2 -14 1 -22 -4 -11 -7 -9 -9 8 -7
23 1 54 37 32 37 -5 0 -10 -7 -10 -16z"/>
<path d="M2347 2463 c-2 -5 -2 -18 -1 -31 1 -13 -3 -21 -10 -19 -6 2 -10 13
-8 23 3 18 3 18 -11 -1 -9 -11 -13 -23 -10 -27 6 -10 -32 -59 -40 -52 -3 3 -3
12 0 20 3 8 1 14 -5 14 -11 0 -11 -18 1 -38 5 -7 0 -23 -12 -38 -15 -19 -21
-22 -21 -11 0 9 5 19 10 22 6 3 10 12 10 18 0 7 -6 4 -14 -5 -7 -10 -17 -14
-21 -10 -5 4 -5 1 -1 -5 9 -17 -35 -18 -51 -2 -14 14 -33 3 -33 -19 0 -12 -3
-13 -8 -5 -5 8 -40 13 -104 14 -75 1 -95 4 -92 14 7 18 -9 26 -26 13 -12 -8
-12 -9 3 -4 21 7 22 -4 1 -30 -8 -10 -13 -14 -10 -8 3 7 0 17 -8 23 -11 9 -17
8 -29 -3 -10 -11 -17 -12 -26 -3 -16 16 -51 19 -56 4 -4 -9 -38 -11 -140 -7
-85 3 -137 1 -139 -5 -3 -6 -5 -5 -5 1 -1 6 -12 9 -26 6 -20 -3 -24 -1 -19 11
7 18 -12 32 -22 16 -4 -8 -3 -9 4 -5 14 9 15 -4 2 -24 -8 -12 -10 -12 -10 -1
0 11 -3 11 -15 1 -18 -15 -20 0 -2 20 10 12 9 12 -5 1 -14 -10 -17 -9 -21 6
-2 10 -3 5 -1 -11 4 -28 4 -28 -21 -12 -21 14 -24 14 -19 1 5 -12 2 -13 -17
-6 -18 6 -27 4 -37 -8 -7 -9 -11 -11 -8 -5 3 7 -14 11 -49 11 -35 0 -52 -4
-49 -11 3 -6 -2 -2 -10 8 -14 17 -16 18 -16 3 0 -9 -5 -17 -11 -17 -5 0 -7 5
-4 10 3 6 -3 10 -15 10 -12 0 -18 -4 -15 -10 3 -5 2 -10 -4 -10 -5 0 -12 6
-14 13 -4 9 -8 8 -16 -3 -6 -8 -11 -10 -11 -4 0 6 -11 12 -25 12 -16 0 -22 -5
-18 -12 4 -6 1 -6 -9 2 -18 14 -67 13 -87 -2 -11 -8 -13 -8 -8 0 5 9 -11 11
-55 10 -39 0 -63 -6 -66 -13 -2 -7 5 -13 15 -14 16 0 16 -1 -2 -9 -13 -6 -15
-9 -5 -9 9 -1 11 -4 4 -9 -6 -4 -10 -44 -9 -97 0 -97 8 -108 50 -76 20 16 20
16 2 -6 -10 -12 -27 -20 -37 -18 -14 3 -18 -2 -18 -18 1 -12 6 -28 12 -36 8
-11 8 -13 0 -8 -7 4 -11 -7 -11 -33 0 -26 4 -37 11 -33 6 3 5 0 -1 -8 -20 -21
-15 -34 5 -16 15 14 19 15 19 2 0 -8 -4 -12 -8 -10 -9 6 -34 -24 -26 -32 4 -3
12 -2 20 3 7 5 5 2 -5 -8 -21 -19 -24 -33 -5 -22 9 6 9 4 1 -7 -14 -18 -14
-52 0 -61 7 -5 7 -8 1 -8 -13 0 -13 -39 -1 -59 6 -9 5 -12 -2 -7 -7 4 -10 -3
-8 -21 1 -16 8 -27 15 -25 7 1 10 -2 6 -8 -3 -6 -10 -8 -14 -6 -11 7 -8 -76 3
-93 6 -9 5 -12 -2 -7 -14 8 -12 -34 2 -53 8 -11 8 -13 -1 -7 -17 9 -17 -6 0
-23 6 -8 7 -11 1 -8 -13 7 -13 -42 0 -62 6 -9 5 -12 -2 -7 -7 4 -10 -3 -8 -21
1 -16 8 -27 15 -25 7 1 10 -2 6 -8 -3 -6 -10 -8 -15 -5 -11 7 -7 -45 4 -64 6
-10 5 -12 -2 -7 -18 11 -14 -4 6 -22 10 -10 12 -13 5 -8 -8 5 -17 6 -20 2 -4
-4 -1 -11 7 -16 8 -6 10 -10 4 -10 -6 0 -11 -11 -12 -25 0 -28 23 -30 55 -5
17 14 17 14 -1 -7 -10 -12 -21 -22 -25 -21 -24 3 -27 -8 -26 -95 1 -68 5 -91
14 -89 7 1 10 -2 6 -8 -3 -6 -11 -8 -16 -5 -5 4 -9 1 -9 -4 0 -6 6 -11 13 -11
8 0 8 -3 1 -8 -5 -4 -10 -24 -11 -44 l-1 -37 182 1 c119 0 186 4 195 12 11 8
13 8 8 -1 -10 -16 212 -15 232 1 11 8 13 8 8 -1 -10 -16 691 -16 712 1 12 8
13 8 7 -1 -4 -8 -1 -13 9 -13 10 0 13 5 9 12 -4 7 -3 8 4 4 7 -4 12 -27 12
-51 0 -44 10 -56 43 -47 12 3 17 15 17 43 0 34 3 39 23 39 18 0 23 5 22 22 -1
12 -8 24 -15 26 -9 3 -5 9 11 18 13 7 18 13 12 14 -7 0 -13 9 -13 19 0 11 6
22 13 24 10 4 10 6 0 6 -7 1 -13 10 -13 20 0 11 -6 22 -12 24 -10 4 -10 6 0 6
7 1 12 15 12 36 0 21 -5 35 -12 35 -10 0 -10 2 0 9 10 6 13 44 13 149 0 78 -3
146 -6 152 -3 5 -3 10 2 10 4 0 8 14 8 30 0 17 -4 30 -8 30 -5 0 -5 5 -1 12 9
15 8 93 -1 108 -6 9 8 15 28 11 5 -1 6 3 2 9 -3 6 -9 8 -13 6 -4 -2 -8 23 -8
55 -1 50 1 59 15 57 11 -2 16 4 16 22 0 19 -5 24 -20 22 -18 -2 -18 -1 4 16
18 14 21 21 11 27 -8 5 -11 4 -7 -2 4 -6 -2 -13 -14 -16 -20 -5 -20 -5 -4 20
10 14 13 23 8 20 -5 -4 -10 9 -10 28 0 19 4 35 9 35 4 0 8 4 8 10 0 5 -8 7
-17 4 -15 -5 -16 -4 -3 5 8 6 11 11 6 11 -5 0 -2 8 5 17 8 9 9 14 3 10 -7 -4
-11 6 -11 29 0 22 3 30 9 22 5 -9 8 -10 8 -1 0 6 -4 15 -10 18 -14 9 -12 25 3
23 6 -2 15 -12 19 -23 6 -17 7 -16 5 5 -1 14 -8 25 -16 25 -8 0 -15 8 -17 18
-1 11 3 17 14 15 12 -2 18 5 19 22 1 21 1 21 -3 3 -6 -24 -34 -21 -34 4 0 8 5
11 10 8 6 -3 10 -1 10 4 0 6 -4 11 -8 11 -10 0 -9 61 1 78 5 7 13 10 18 7 5
-4 9 -1 9 4 0 14 -13 14 -27 0 -8 -8 -13 -8 -17 0 -4 6 -2 11 5 11 7 0 9 3 6
7 -4 3 -1 13 6 21 6 9 7 13 1 9 -7 -4 -11 6 -12 28 -1 19 3 35 9 35 6 0 9 -6
6 -13 -3 -8 -1 -20 3 -27 10 -16 40 -22 40 -8 0 6 -6 8 -14 5 -21 -8 -28 19
-9 35 15 11 16 11 10 -5 -4 -11 -3 -16 4 -12 6 4 8 13 5 21 -3 7 3 18 12 24
16 11 16 11 0 6 -10 -3 -20 -1 -23 4 -4 6 0 11 7 11 7 1 19 2 27 3 17 1 28 26
11 26 -6 0 -9 4 -6 9 3 4 17 7 32 5 14 -1 23 1 19 4 -3 4 -14 7 -23 7 -12 0
-16 7 -15 23 3 21 -11 31 -20 15z m13 -80 c0 -3 -6 -3 -12 0 -7 2 -21 0 -31
-5 -14 -7 -16 -13 -7 -23 14 -17 -6 -33 -22 -17 -7 7 -3 18 15 35 18 19 22 28
13 38 -6 6 1 4 17 -6 15 -9 27 -19 27 -22z m-560 -73 c0 -5 -2 -10 -4 -10 -3
0 -8 5 -11 10 -3 6 -1 10 4 10 6 0 11 -4 11 -10z m77 -12 c-3 -8 -6 -5 -6 6
-1 11 2 17 5 13 3 -3 4 -12 1 -19z m283 12 c0 -5 -2 -10 -4 -10 -3 0 -8 5 -11
10 -3 6 -1 10 4 10 6 0 11 -4 11 -10z m-1310 -30 c0 -5 -5 -10 -11 -10 -5 0
-7 5 -4 10 3 6 8 10 11 10 2 0 4 -4 4 -10z m377 3 c-4 -3 -2 -11 3 -18 7 -8 5
-12 -4 -12 -8 0 -12 7 -11 16 5 22 4 21 12 21 3 0 3 -3 0 -7z m-200 -16 c0 -8
-6 -14 -14 -14 -9 0 -10 4 -2 14 6 7 12 13 14 13 1 0 2 -6 2 -13z m55 -2 c2 3
5 -2 5 -10 0 -10 -4 -12 -12 -5 -7 5 -14 8 -17 5 -2 -3 -5 2 -5 10 0 10 4 12
12 5 7 -5 14 -8 17 -5z m105 2 c0 -8 -6 -14 -14 -14 -9 0 -10 4 -2 14 6 7 12
13 14 13 1 0 2 -6 2 -13z m110 -5 c-10 -10 -15 -21 -12 -24 3 -3 -5 -13 -17
-24 -23 -19 -23 -19 -7 1 9 11 15 28 14 38 -2 9 1 15 5 12 5 -3 11 -1 15 5 3
5 9 10 12 10 3 0 -1 -8 -10 -18z m33 -6 c0 -2 -8 -10 -17 -17 -16 -13 -17 -12
-4 4 13 16 21 21 21 13z m-308 -20 c9 6 9 3 -1 -9 -8 -10 -14 -16 -15 -15 -1
2 -8 12 -16 23 -14 18 -14 19 2 7 10 -8 23 -10 30 -6z m105 -3 c0 -9 -4 -10
-14 -2 -7 6 -13 12 -13 14 0 1 6 2 13 2 8 0 14 -6 14 -14z m31 -8 c-3 -3 -9 2
-12 12 -6 14 -5 15 5 6 7 -7 10 -15 7 -18z m92 5 c-13 -24 -14 -24 -31 -2 -13
15 -12 16 2 4 14 -10 18 -10 23 3 3 8 8 15 11 15 3 0 1 -9 -5 -20z m-186 -20
c-6 -6 -10 -3 -10 10 0 13 4 16 10 10 7 -7 7 -13 0 -20z m122 10 c0 -12 -4
-16 -9 -11 -5 5 -6 14 -3 20 10 15 12 14 12 -9z m-285 -7 c12 -16 12 -17 -2
-6 -9 7 -19 10 -22 6 -4 -3 -7 -1 -7 5 0 17 16 15 31 -5z m80 0 c13 -16 12
-17 -3 -4 -10 7 -18 15 -18 17 0 8 8 3 21 -13z m353 9 c3 -5 -1 -9 -9 -9 -8 0
-12 4 -9 9 3 4 7 8 9 8 2 0 6 -4 9 -8z m-483 -19 c13 -16 12 -17 -3 -4 -10 7
-18 15 -18 17 0 8 8 3 21 -13z m249 3 c0 -2 -8 -10 -17 -17 -16 -13 -17 -12
-4 4 13 16 21 21 21 13z m61 -13 c13 -16 12 -17 -3 -4 -17 13 -22 21 -14 21 2
0 10 -8 17 -17z m-325 -15 c12 -14 13 -18 3 -10 -9 6 -18 10 -21 7 -2 -3 -5 2
-5 10 0 19 0 19 23 -7z m94 19 c0 -2 -10 -12 -22 -23 l-23 -19 19 23 c18 21
26 27 26 19z m381 -14 c13 -16 12 -17 -3 -4 -10 7 -18 15 -18 17 0 8 8 3 21
-13z m-308 -11 c15 -16 15 -19 2 -19 -8 0 -13 3 -10 5 3 3 0 11 -6 19 -17 20
-5 16 14 -5z m248 5 c-6 -8 -9 -16 -6 -19 3 -2 -2 -5 -10 -5 -13 0 -13 3 2 19
19 21 31 25 14 5z m969 7 c0 -8 -19 -13 -24 -6 -3 5 1 9 9 9 8 0 15 -2 15 -3z
m-926 -22 c2 -4 -4 -8 -14 -8 -10 0 -16 4 -14 8 3 4 9 8 14 8 5 0 11 -4 14 -8z
m-470 -32 c-6 -6 -10 -3 -10 10 0 13 4 16 10 10 7 -7 7 -13 0 -20z m26 -13 c0
-2 -8 -11 -18 -20 -15 -14 -19 -15 -19 -2 0 8 4 12 8 9 4 -2 10 0 14 6 6 10
15 14 15 7z m75 -35 c-3 -3 3 -15 12 -26 14 -15 14 -18 2 -8 -9 6 -18 9 -22 6
-3 -3 -4 2 -2 13 1 10 -5 27 -14 38 -16 20 -16 20 7 1 12 -11 20 -21 17 -24z
m66 21 c13 -16 12 -17 -3 -4 -17 13 -22 21 -14 21 2 0 10 -8 17 -17z m325 -5
c3 -4 -1 -5 -10 -4 -8 1 -18 5 -22 8 -3 4 1 5 10 4 8 -1 18 -5 22 -8z m-421
-18 c3 -6 -1 -7 -9 -4 -18 7 -21 14 -7 14 6 0 13 -4 16 -10z m429 -29 c-2 -3
-12 3 -22 13 -16 17 -16 18 5 5 12 -7 20 -15 17 -18z m-438 -3 c19 -23 19 -23
-2 -5 -11 9 -24 14 -29 10 -4 -5 -5 -2 -1 5 9 16 10 16 32 -10z m998 14 c3 -5
-1 -9 -9 -9 -8 0 -12 4 -9 9 3 4 7 8 9 8 2 0 6 -4 9 -8z m-593 -19 c13 -16 12
-17 -3 -4 -10 7 -18 15 -18 17 0 8 8 3 21 -13z m-461 -7 c0 -2 -8 -10 -17 -17
-16 -13 -17 -12 -4 4 13 16 21 21 21 13z m58 -22 c1 -1 -5 -7 -15 -15 -12 -10
-15 -10 -9 -1 4 7 2 20 -6 30 -12 16 -11 16 7 2 11 -8 21 -15 23 -16z m54 11
c2 3 5 -2 5 -10 0 -19 0 -19 -23 7 -12 14 -13 18 -3 10 9 -6 18 -10 21 -7z
m389 -2 c13 -16 12 -17 -3 -4 -10 7 -18 15 -18 17 0 8 8 3 21 -13z m636 -8 c0
-8 -4 -12 -9 -9 -5 3 -6 10 -3 15 9 13 12 11 12 -6z m-1120 -8 c0 -8 -6 -14
-14 -14 -9 0 -10 4 -2 14 6 7 12 13 14 13 1 0 2 -6 2 -13z m466 -22 c11 2 16
1 12 -3 -3 -3 -17 -7 -31 -8 -13 0 -22 1 -19 4 3 3 -1 12 -7 21 -11 14 -10 14
7 0 11 -9 28 -15 38 -14z m-407 0 c-1 -8 -5 -17 -8 -21 -5 -4 -4 16 1 34 3 9
9 -1 7 -13z m22 -35 c-7 -10 -14 -17 -17 -15 -4 4 18 35 25 35 2 0 -1 -9 -8
-20z m-100 -15 c-3 -3 -9 2 -12 12 -6 14 -5 15 5 6 7 -7 10 -15 7 -18z m142
-14 c0 -6 -4 -12 -8 -15 -5 -3 -9 1 -9 9 0 8 4 15 9 15 4 0 8 -4 8 -9z m320 5
c0 -2 -7 -7 -16 -10 -8 -3 -12 -2 -9 4 6 10 25 14 25 6z m-379 -23 c13 -16 12
-17 -3 -4 -10 7 -18 15 -18 17 0 8 8 3 21 -13z m113 -9 c3 -8 2 -12 -4 -9 -6
3 -10 10 -10 16 0 14 7 11 14 -7z m269 4 c-6 -7 -9 -21 -7 -31 1 -11 0 -16 -3
-13 -4 3 -13 0 -22 -6 -10 -8 -9 -4 3 10 11 12 16 22 11 22 -4 0 -2 7 5 15 15
18 27 20 13 3z m914 -3 c0 -8 -4 -12 -9 -9 -5 3 -6 10 -3 15 9 13 12 11 12 -6z
m-1316 -12 c13 -16 12 -17 -3 -4 -10 7 -18 15 -18 17 0 8 8 3 21 -13z m436 4
c0 -8 -6 -14 -14 -14 -9 0 -10 4 -2 14 6 7 12 13 14 13 1 0 2 -6 2 -13z m-318
-31 c-3 -3 -11 5 -18 17 -13 21 -12 21 5 5 10 -10 16 -20 13 -22z m203 27
c-10 -4 -9 -10 5 -26 12 -15 13 -18 2 -9 -9 6 -19 8 -23 4 -4 -4 -6 0 -4 8 2
8 -3 14 -10 12 -8 -1 -11 1 -9 6 3 4 16 8 29 9 13 0 17 -1 10 -4z m48 2 c0 -2
-6 -8 -13 -14 -10 -8 -14 -7 -14 2 0 8 6 14 14 14 7 0 13 -1 13 -2z m-381 -41
c-6 -8 -14 -14 -17 -14 -3 0 -1 5 6 12 9 9 7 15 -6 25 -15 13 -14 13 6 3 19
-9 21 -14 11 -26z m63 21 c2 3 5 -2 5 -10 0 -19 0 -19 -23 7 -12 14 -13 18 -3
10 9 -6 18 -10 21 -7z m147 2 c-2 -1 -13 -9 -24 -17 -19 -14 -19 -14 -6 3 7 9
18 17 24 17 6 0 8 -1 6 -3z m1051 -3 c0 -8 -19 -13 -24 -6 -3 5 1 9 9 9 8 0
15 -2 15 -3z m-1293 -17 c0 -8 -6 -14 -14 -14 -9 0 -10 4 -2 14 6 7 12 13 14
13 1 0 2 -6 2 -13z m179 -22 c-1 -8 -5 -17 -8 -21 -5 -4 -4 16 1 34 3 9 9 -1
7 -13z m162 -10 c-3 -3 -9 2 -12 12 -6 14 -5 15 5 6 7 -7 10 -15 7 -18z m-283
6 c3 -5 2 -12 -3 -15 -5 -3 -9 1 -9 9 0 17 3 19 12 6z m60 -36 c-1 -25 -5 -48
-7 -51 -3 -3 -4 14 -3 38 4 56 4 58 9 58 2 0 3 -20 1 -45z m256 22 c-10 -9
-11 -8 -5 6 3 10 9 15 12 12 3 -3 0 -11 -7 -18z m-293 -17 c-7 -10 -14 -17
-17 -15 -4 4 18 35 25 35 2 0 -1 -9 -8 -20z m159 3 c0 -9 -4 -10 -14 -2 -7 6
-13 12 -13 14 0 1 6 2 13 2 8 0 14 -6 14 -14z m41 -7 c-2 -1 -12 -8 -23 -16
-18 -14 -19 -14 -7 2 8 10 10 23 6 30 -6 9 -3 9 9 -1 10 -8 16 -14 15 -15z
m167 15 c-9 -8 -36 -10 -30 -2 2 4 11 8 20 8 8 0 13 -3 10 -6z m-460 -21 c10
-11 16 -20 13 -20 -3 0 -13 9 -23 20 -10 11 -16 20 -13 20 3 0 13 -9 23 -20z
m352 5 c0 -8 -3 -13 -5 -10 -3 3 -12 -1 -21 -7 -10 -8 -9 -4 3 10 23 26 23 26
23 7z m-126 -12 c13 -17 13 -17 -6 -3 -11 8 -22 16 -24 17 -2 2 0 3 6 3 6 0
17 -8 24 -17z m259 13 c0 -2 -8 -10 -17 -17 -16 -13 -17 -12 -4 4 13 16 21 21
21 13z m-271 -50 c-3 -3 -11 5 -18 17 -13 21 -12 21 5 5 10 -10 16 -20 13 -22z
m91 30 c0 -2 -8 -10 -17 -17 -16 -13 -17 -12 -4 4 13 16 21 21 21 13z m1158
-36 c-2 -6 -8 -6 -18 0 -13 9 -13 11 0 20 15 10 25 0 18 -20z m-1444 12 c3 -5
-1 -9 -9 -9 -8 0 -12 4 -9 9 3 4 7 8 9 8 2 0 6 -4 9 -8z m133 -7 c0 -8 -4 -12
-9 -9 -5 3 -6 10 -3 15 9 13 12 11 12 -6z m337 4 c3 -3 -5 -5 -19 -5 -13 0
-22 3 -19 7 4 8 30 6 38 -2z m886 2 c0 -6 -4 -12 -8 -15 -5 -3 -9 1 -9 9 0 8
4 15 9 15 4 0 8 -4 8 -9z m-1279 -18 c13 -16 12 -17 -3 -4 -10 7 -18 15 -18
17 0 8 8 3 21 -13z m-22 -16 c8 -10 7 -14 -2 -14 -8 0 -14 6 -14 14 0 7 1 13
2 13 2 0 8 -6 14 -13z m578 -12 c0 -8 -4 -12 -9 -9 -5 3 -6 10 -3 15 9 13 12
11 12 -6z m160 0 c0 -8 -4 -12 -9 -9 -5 3 -6 10 -3 15 9 13 12 11 12 -6z m160
0 c0 -8 -4 -12 -9 -9 -5 3 -6 10 -3 15 9 13 12 11 12 -6z m243 9 c0 -8 -19
-13 -24 -6 -3 5 1 9 9 9 8 0 15 -2 15 -3z m-1122 -34 c-7 -10 -14 -17 -17 -15
-4 4 18 35 25 35 2 0 -1 -9 -8 -20z m47 10 c3 -6 -1 -7 -9 -4 -18 7 -21 14 -7
14 6 0 13 -4 16 -10z m349 1 c3 -4 -4 -17 -17 -27 -22 -19 -22 -19 -4 2 9 11
14 24 10 27 -3 4 -4 7 0 7 3 0 8 -4 11 -9z m-364 -15 c0 -2 -8 -10 -17 -17
-16 -13 -17 -12 -4 4 13 16 21 21 21 13z m310 -6 c0 -5 -2 -10 -4 -10 -3 0 -8
5 -11 10 -3 6 -1 10 4 10 6 0 11 -4 11 -10z m-374 -22 c3 -4 -1 -5 -10 -4 -8
1 -18 5 -22 8 -3 4 1 5 10 4 8 -1 18 -5 22 -8z m70 -13 c-1 -8 -8 -21 -16 -28
-10 -10 -11 -9 -4 3 5 8 9 18 10 23 3 14 4 17 8 17 2 0 3 -7 2 -15z m-105 -12
c13 -17 13 -17 -6 -3 -11 8 -22 16 -24 17 -2 2 0 3 6 3 6 0 17 -8 24 -17z m70
4 c-6 -8 -9 -16 -6 -19 3 -2 -2 -5 -10 -5 -13 0 -13 3 2 19 19 21 31 25 14 5z
m396 7 c-8 -8 -48 -13 -43 -6 2 4 14 8 26 9 12 1 20 0 17 -3z m-432 -45 c3 -3
-6 -5 -19 -5 -14 1 -28 4 -31 7 -3 3 6 5 19 5 14 -1 28 -4 31 -7z m-51 -18 c3
-5 -2 -15 -12 -22 -15 -12 -16 -12 -5 2 7 9 10 19 6 22 -3 4 -4 7 0 7 3 0 8
-4 11 -9z m1361 -9 c-3 -3 -11 0 -18 7 -9 10 -8 11 6 5 10 -3 15 -9 12 -12z
m45 14 c0 -2 -7 -7 -16 -10 -8 -3 -12 -2 -9 4 6 10 25 14 25 6z m-1326 -35
c-2 -3 -12 3 -22 13 -16 17 -16 18 5 5 12 -7 20 -15 17 -18z m440 10 c3 -5 -2
-15 -12 -22 -15 -12 -16 -12 -5 2 7 9 10 19 6 22 -3 4 -4 7 0 7 3 0 8 -4 11
-9z m46 5 c0 -2 -7 -7 -16 -10 -8 -3 -12 -2 -9 4 6 10 25 14 25 6z m35 -41
c-1 -25 -5 -48 -7 -51 -3 -3 -4 14 -3 38 4 56 4 58 9 58 2 0 3 -20 1 -45z
m320 0 c-1 -25 -5 -48 -7 -51 -3 -3 -4 14 -3 38 4 56 4 58 9 58 2 0 3 -20 1
-45z m365 20 c14 -19 14 -19 -2 -6 -10 7 -18 18 -18 24 0 6 1 8 3 6 1 -2 9
-13 17 -24z m36 1 c0 -14 -3 -23 -7 -20 -6 3 -6 22 0 42 3 10 7 -2 7 -22z
m-676 10 c0 -2 -8 -10 -17 -17 -16 -13 -17 -12 -4 4 13 16 21 21 21 13z m320
0 c0 -2 -8 -10 -17 -17 -16 -13 -17 -12 -4 4 13 16 21 21 21 13z m196 -11 c-1
-8 -5 -17 -8 -21 -5 -4 -4 16 1 34 3 9 9 -1 7 -13z m44 11 c0 -2 -8 -10 -17
-17 -16 -13 -17 -12 -4 4 13 16 21 21 21 13z m-1154 -18 c3 -4 -1 -5 -10 -4
-8 1 -18 5 -22 8 -3 4 1 5 10 4 8 -1 18 -5 22 -8z m79 3 c-9 -8 -36 -10 -30
-2 2 4 11 8 20 8 8 0 13 -3 10 -6z m-145 -5 c0 -2 -8 -10 -17 -17 -16 -13 -17
-12 -4 4 13 16 21 21 21 13z m556 -11 c-1 -8 -5 -17 -8 -21 -5 -4 -4 16 1 34
3 9 9 -1 7 -13z m120 0 c-1 -8 -5 -17 -8 -21 -5 -4 -4 16 1 34 3 9 9 -1 7 -13z
m200 0 c-1 -8 -5 -17 -8 -21 -5 -4 -4 16 1 34 3 9 9 -1 7 -13z m120 0 c-1 -8
-5 -17 -8 -21 -5 -4 -4 16 1 34 3 9 9 -1 7 -13z m228 -6 c-10 -12 -18 -24 -17
-28 1 -3 0 -8 -2 -9 -2 -2 -3 3 -1 11 2 16 25 47 34 47 3 0 -3 -9 -14 -21z
m70 -8 c-2 -3 -12 3 -22 13 -16 17 -16 18 5 5 12 -7 20 -15 17 -18z m-1288 -9
c-17 -16 -18 -16 -5 5 7 12 15 20 18 17 3 -2 -3 -12 -13 -22z m838 18 c-7 -7
-153 -7 -149 0 2 3 37 5 78 5 42 0 73 -2 71 -5z m240 1 c-7 -8 -74 -9 -69 -1
2 3 19 6 39 6 19 0 33 -3 30 -5z m-929 -11 c3 -6 -1 -7 -9 -4 -18 7 -21 14 -7
14 6 0 13 -4 16 -10z m981 -5 c-1 -8 -5 -17 -8 -21 -5 -4 -4 16 1 34 3 9 9 -1
7 -13z m-686 -1 c0 -8 -19 -13 -24 -6 -3 5 1 9 9 9 8 0 15 -2 15 -3z m47 -14
c-19 -25 -20 -26 -13 -6 5 14 2 17 -9 12 -9 -3 -13 -2 -10 3 3 6 14 9 25 8 15
-1 17 -4 7 -17z m93 16 c0 -2 -8 -10 -17 -17 -16 -13 -17 -12 -4 4 13 16 21
21 21 13z m320 0 c0 -2 -8 -10 -17 -17 -16 -13 -17 -12 -4 4 13 16 21 21 21
13z m275 -5 c-9 -8 -36 -10 -30 -2 2 4 11 8 20 8 8 0 13 -3 10 -6z m79 1 c2
-4 -4 -8 -14 -8 -10 0 -16 4 -14 8 3 4 9 8 14 8 5 0 11 -4 14 -8z m81 -1 c-9
-8 -36 -10 -30 -2 2 4 11 8 20 8 8 0 13 -3 10 -6z m75 3 c0 -8 -19 -13 -24 -6
-3 5 1 9 9 9 8 0 15 -2 15 -3z m-1383 -23 c-1 -15 -4 -17 -14 -9 -15 12 -17
22 -3 13 6 -3 10 -1 10 4 0 6 2 11 4 11 3 0 4 -9 3 -19z m177 -10 c-2 -3 -12
3 -22 13 -16 17 -16 18 5 5 12 -7 20 -15 17 -18z m-41 1 c15 -16 15 -19 2 -19
-8 0 -13 3 -10 5 3 3 0 11 -6 19 -17 20 -5 16 14 -5z m1206 15 c-2 -1 -13 -9
-24 -17 -19 -14 -19 -14 -6 3 7 9 18 17 24 17 6 0 8 -1 6 -3z m-1122 -20 c0
-8 -6 -14 -14 -14 -9 0 -10 4 -2 14 6 7 12 13 14 13 1 0 2 -6 2 -13z m140 -2
c0 -8 -4 -12 -9 -9 -5 3 -6 10 -3 15 9 13 12 11 12 -6z m-364 -20 c4 3 5 2 2
-2 -3 -4 -13 -8 -21 -9 -9 -1 -13 0 -10 3 3 4 0 13 -6 22 -10 12 -7 12 8 -2
11 -9 24 -15 27 -12z m113 13 c3 -4 -1 -5 -10 -4 -8 1 -18 5 -22 8 -3 4 1 5
10 4 8 -1 18 -5 22 -8z m-50 -10 c5 4 6 3 2 -2 -4 -5 -2 -16 4 -25 10 -12 7
-12 -8 2 -11 9 -23 15 -26 12 -2 -3 -5 2 -5 10 0 10 4 12 12 5 7 -5 16 -6 21
-2z m260 -10 c3 -4 -1 -5 -10 -4 -8 1 -18 5 -22 8 -3 4 1 5 10 4 8 -1 18 -5
22 -8z m1058 -4 c3 -8 2 -12 -4 -9 -6 3 -10 10 -10 16 0 14 7 11 14 -7z
m-1282 -11 c-1 -4 7 -17 16 -28 17 -20 17 -20 -4 -2 -11 9 -21 24 -21 32 0 8
2 13 5 11 2 -2 4 -8 4 -13z m368 13 c0 -2 -8 -10 -17 -17 -16 -13 -17 -12 -4
4 13 16 21 21 21 13z m-323 -23 c0 -9 -4 -10 -14 -2 -7 6 -13 12 -13 14 0 1 6
2 13 2 8 0 14 -6 14 -14z m43 1 c-6 -6 -8 -14 -5 -17 3 -4 2 -5 -2 -2 -3 3
-13 -1 -22 -7 -11 -9 -10 -6 2 9 14 16 15 22 5 26 -7 3 -3 4 9 4 15 -1 19 -5
13 -13z m50 11 c0 -1 -10 -10 -22 -21 -14 -12 -18 -13 -10 -3 6 9 10 18 7 21
-3 2 2 5 10 5 8 0 15 -1 15 -2z m60 -15 c6 -11 8 -20 6 -20 -3 0 -10 9 -16 20
-6 11 -8 20 -6 20 3 0 10 -9 16 -20z m61 -3 c-10 -9 -11 -8 -5 6 3 10 9 15 12
12 3 -3 0 -11 -7 -18z m989 8 c-12 -14 -8 -38 10 -61 13 -18 13 -18 -5 -1 -23
20 -29 74 -9 74 9 0 10 -4 4 -12z m-1301 -8 c8 -10 7 -14 -2 -14 -8 0 -14 6
-14 14 0 7 1 13 2 13 2 0 8 -6 14 -13z m345 -8 c-10 -12 -18 -24 -17 -28 1 -3
0 -8 -2 -9 -2 -2 -3 3 -1 11 2 16 25 47 34 47 3 0 -3 -9 -14 -21z m-326 -29
c-7 -10 -14 -17 -17 -15 -4 4 18 35 25 35 2 0 -1 -9 -8 -20z m366 8 c-3 -5 -2
-15 3 -21 4 -7 1 -5 -8 5 -9 9 -20 14 -24 10 -5 -4 -5 -2 -2 4 3 6 13 11 21
11 8 0 13 -4 10 -9z m594 -8 c-7 -10 -14 -17 -17 -15 -4 4 18 35 25 35 2 0 -1
-9 -8 -20z m36 11 c3 -4 -4 -17 -17 -27 -22 -19 -22 -19 -4 2 9 11 14 24 10
27 -3 4 -4 7 0 7 3 0 8 -4 11 -9z m80 1 c3 -5 -1 -9 -9 -9 -8 0 -12 4 -9 9 3
4 7 8 9 8 2 0 6 -4 9 -8z m170 0 c3 -5 -1 -9 -9 -9 -8 0 -12 4 -9 9 3 4 7 8 9
8 2 0 6 -4 9 -8z m-1111 -17 c-3 -9 -8 -14 -10 -11 -3 3 -2 9 2 15 9 16 15 13
8 -4z m280 0 c-3 -9 -8 -14 -10 -11 -3 3 -2 9 2 15 9 16 15 13 8 -4z m203 0
c-1 -8 -5 -17 -8 -21 -5 -4 -4 16 1 34 3 9 9 -1 7 -13z m424 12 c0 -2 -10 -12
-22 -23 l-23 -19 19 23 c18 21 26 27 26 19z m-1001 -10 c-2 -1 -13 -9 -24 -17
-19 -14 -19 -14 -6 3 7 9 18 17 24 17 6 0 8 -1 6 -3z m118 -12 c0 -8 -4 -12
-9 -9 -5 3 -6 10 -3 15 9 13 12 11 12 -6z m580 0 c0 -8 -4 -12 -9 -9 -5 3 -6
10 -3 15 9 13 12 11 12 -6z m87 6 c-7 -8 -54 -9 -49 -1 2 3 15 6 29 6 14 0 23
-2 20 -5z m375 6 c-2 -1 -13 -9 -24 -17 -19 -14 -19 -14 -6 3 7 9 18 17 24 17
6 0 8 -1 6 -3z m-722 -22 c0 -8 -10 -23 -21 -32 -21 -18 -21 -18 -2 5 11 12
16 22 12 22 -4 0 -4 5 -1 10 9 14 12 13 12 -5z m-511 -7 c3 -4 -1 -5 -10 -4
-8 1 -18 5 -22 8 -3 4 1 5 10 4 8 -1 18 -5 22 -8z m484 6 c0 -8 -19 -13 -24
-6 -3 5 1 9 9 9 8 0 15 -2 15 -3z m64 -2 c3 -5 -1 -9 -9 -9 -8 0 -12 4 -9 9 3
4 7 8 9 8 2 0 6 -4 9 -8z m124 -12 c-7 -10 -14 -17 -17 -15 -4 4 18 35 25 35
2 0 -1 -9 -8 -20z m95 -3 c4 3 7 1 7 -5 0 -19 -15 -14 -36 11 -19 22 -19 22 2
4 11 -9 24 -14 27 -10z m193 11 c3 -4 -1 -5 -10 -4 -8 1 -18 5 -22 8 -3 4 1 5
10 4 8 -1 18 -5 22 -8z m109 -8 c-20 -22 -35 -26 -35 -9 0 5 4 8 9 5 5 -3 14
1 21 9 7 8 15 15 18 15 3 0 -3 -9 -13 -20z m97 -4 c3 3 8 1 12 -4 11 -18 -25
-8 -41 12 -18 21 -18 21 3 3 11 -9 23 -14 26 -11z m63 4 c-20 -22 -35 -26 -35
-9 0 5 4 8 9 5 5 -3 14 1 21 9 7 8 15 15 18 15 3 0 -3 -9 -13 -20z m84 -14
c-3 -3 -11 5 -18 17 -13 21 -12 21 5 5 10 -10 16 -20 13 -22z m-858 7 c13 -16
12 -17 -3 -4 -10 7 -18 15 -18 17 0 8 8 3 21 -13z m399 14 c0 -2 -10 -12 -22
-23 l-23 -19 19 23 c18 21 26 27 26 19z m-889 -24 c13 -17 13 -17 -6 -3 -11 8
-22 16 -24 17 -2 2 0 3 6 3 6 0 17 -8 24 -17z m70 4 c-6 -8 -9 -16 -6 -19 3
-2 -2 -5 -10 -5 -13 0 -13 3 2 19 19 21 31 25 14 5z m33 4 c3 -5 -2 -15 -12
-22 -15 -12 -16 -12 -5 2 7 9 10 19 6 22 -3 4 -4 7 0 7 3 0 8 -4 11 -9z m316
-1 c-18 -12 -30 -13 -30 -2 0 4 10 9 22 9 18 2 20 0 8 -7z m43 -8 c15 -16 15
-19 2 -19 -8 0 -13 3 -10 5 3 3 0 11 -6 19 -17 20 -5 16 14 -5z m486 15 c-2
-1 -13 -9 -24 -17 -19 -14 -19 -14 -6 3 7 9 18 17 24 17 6 0 8 -1 6 -3z m-202
-32 c0 -8 -4 -12 -9 -9 -4 3 -8 9 -8 15 0 5 4 9 8 9 5 0 9 -7 9 -15z m610 -13
c-10 -10 -15 -21 -12 -24 3 -3 -3 -11 -12 -19 -16 -13 -17 -12 -4 4 7 9 10 17
6 17 -5 0 0 9 10 20 10 11 20 20 23 20 3 0 -2 -8 -11 -18z m-1372 -20 c-3 -3
0 -11 6 -19 17 -20 5 -16 -14 5 -15 16 -15 19 -2 19 8 0 13 -3 10 -5z m45 -6
c-7 -7 -13 -7 -20 0 -6 6 -3 10 10 10 13 0 16 -4 10 -10z m50 9 c0 -1 -10 -10
-22 -21 -14 -12 -18 -13 -10 -3 6 9 10 18 7 21 -3 2 2 5 10 5 8 0 15 -1 15 -2z
m355 -4 c-9 -8 -36 -10 -30 -2 2 4 11 8 20 8 8 0 13 -3 10 -6z m-326 -14 c-2
-1 -13 -9 -24 -17 -19 -14 -19 -14 -6 3 7 9 18 17 24 17 6 0 8 -1 6 -3z m331
-42 c-7 -8 -17 -15 -23 -15 -6 0 -2 7 9 15 25 19 30 19 14 0z m111 -8 c-10 -9
-11 -8 -5 6 3 10 9 15 12 12 3 -3 0 -11 -7 -18z m480 0 c-10 -9 -11 -8 -5 6 3
10 9 15 12 12 3 -3 0 -11 -7 -18z m-1070 -10 c-10 -9 -11 -8 -5 6 3 10 9 15
12 12 3 -3 0 -11 -7 -18z m949 19 c0 -3 -4 -8 -10 -11 -5 -3 -10 -1 -10 4 0 6
5 11 10 11 6 0 10 -2 10 -4z m-440 -10 c0 -2 -8 -10 -17 -17 -16 -13 -17 -12
-4 4 13 16 21 21 21 13z m755 -30 c0 -19 -3 -37 -6 -40 -4 -5 -4 62 0 72 4 10
7 -4 6 -32z m-1143 0 c3 3 8 1 12 -4 11 -18 -25 -8 -41 12 -18 21 -18 21 3 3
11 -9 23 -14 26 -11z m625 6 c-17 -18 -51 -27 -41 -10 3 5 9 6 14 3 4 -3 13 2
20 10 7 8 15 15 18 15 3 0 -2 -8 -11 -18z m240 0 c-17 -18 -51 -27 -41 -10 3
5 9 6 14 3 4 -3 13 2 20 10 7 8 15 15 18 15 3 0 -2 -8 -11 -18z m240 0 c-17
-18 -51 -27 -41 -10 3 5 9 6 14 3 4 -3 13 2 20 10 7 8 15 15 18 15 3 0 -2 -8
-11 -18z m158 10 c-3 -3 0 -11 6 -19 17 -20 5 -16 -14 5 -15 16 -15 19 -2 19
8 0 13 -3 10 -5z m41 -28 c1 -9 -1 -13 -4 -9 -4 4 -7 10 -7 13 0 4 -4 14 -9
22 -7 12 -6 13 4 3 8 -7 15 -20 16 -29z m-899 4 c0 -13 -1 -17 -4 -10 -3 6
-10 9 -16 5 -7 -4 -6 1 2 10 17 21 17 21 18 -5z m63 19 c0 -2 -8 -11 -18 -20
-15 -14 -19 -15 -19 -2 0 8 4 12 8 9 4 -2 10 0 14 6 6 10 15 14 15 7z m77 -42
c0 -8 -4 -12 -9 -9 -5 4 -7 9 -4 12 3 3 -2 15 -11 26 -18 21 -18 21 3 3 11 -9
21 -24 21 -32z m163 42 c0 -2 -8 -11 -18 -20 -15 -14 -19 -15 -19 -2 0 8 4 12
8 9 4 -2 10 0 14 6 6 10 15 14 15 7z m77 -42 c0 -8 -4 -12 -9 -9 -5 4 -7 9 -4
12 3 3 -2 15 -11 26 -18 21 -18 21 3 3 11 -9 21 -24 21 -32z m163 42 c0 -2 -8
-11 -18 -20 -15 -14 -19 -15 -19 -2 0 8 4 12 8 9 4 -2 10 0 14 6 6 10 15 14
15 7z m77 -42 c0 -8 -4 -12 -9 -9 -5 4 -7 9 -4 12 3 3 -2 15 -11 26 -18 21
-18 21 3 3 11 -9 21 -24 21 -32z m173 32 c0 -2 -10 -12 -22 -23 l-23 -19 19
23 c18 21 26 27 26 19z m41 -14 c13 -17 13 -17 -6 -3 -11 8 -22 16 -24 17 -2
2 0 3 6 3 6 0 17 -8 24 -17z m-860 -20 c13 -16 12 -17 -3 -4 -17 13 -22 21
-14 21 2 0 10 -8 17 -17z m99 13 c0 -2 -8 -10 -17 -17 -16 -13 -17 -12 -4 4
13 16 21 21 21 13z m35 -6 c3 -6 -1 -7 -9 -4 -18 7 -21 14 -7 14 6 0 13 -4 16
-10z m205 6 c0 -2 -8 -10 -17 -17 -16 -13 -17 -12 -4 4 13 16 21 21 21 13z
m35 -6 c3 -6 -1 -7 -9 -4 -18 7 -21 14 -7 14 6 0 13 -4 16 -10z m205 6 c0 -2
-8 -10 -17 -17 -16 -13 -17 -12 -4 4 13 16 21 21 21 13z m35 -6 c3 -6 -1 -7
-9 -4 -18 7 -21 14 -7 14 6 0 13 -4 16 -10z m226 -7 c13 -16 12 -17 -3 -4 -17
13 -22 21 -14 21 2 0 10 -8 17 -17z m-1260 -20 c12 -16 12 -17 -2 -6 -9 7 -19
10 -22 6 -4 -3 -7 -1 -7 5 0 17 16 15 31 -5z m389 5 c0 -4 -4 -8 -9 -8 -6 0
-12 4 -15 8 -3 5 1 9 9 9 8 0 15 -4 15 -9z m891 -11 c-10 -9 -11 -8 -5 6 3 10
9 15 12 12 3 -3 0 -11 -7 -18z m-1330 -4 c13 -16 12 -17 -3 -4 -10 7 -18 15
-18 17 0 8 8 3 21 -13z m114 -3 c3 -5 1 -10 -4 -10 -6 0 -11 5 -11 10 0 6 2
10 4 10 3 0 8 -4 11 -10z m1242 -8 c-17 -18 -51 -27 -41 -10 3 5 9 6 14 3 4
-3 13 2 20 10 7 8 15 15 18 15 3 0 -2 -8 -11 -18z m-1378 -5 c8 -10 7 -14 -2
-14 -8 0 -14 6 -14 14 0 7 1 13 2 13 2 0 8 -6 14 -13z m176 -6 c3 -5 2 -12 -3
-15 -5 -3 -9 1 -9 9 0 17 3 19 12 6z m246 -18 c13 -16 12 -17 -3 -4 -10 7 -18
15 -18 17 0 8 8 3 21 -13z m-400 -6 c-6 -8 -9 -17 -6 -20 3 -4 2 -5 -2 -2 -3
3 -11 1 -17 -5 -8 -6 -12 -2 -13 13 -2 14 1 17 6 9 6 -10 10 -10 21 3 7 8 15
15 17 15 3 0 0 -6 -6 -13z m44 3 c3 -6 -1 -7 -9 -4 -18 7 -21 14 -7 14 6 0 13
-4 16 -10z m122 -18 c-10 -10 -15 -21 -12 -24 3 -3 -5 -13 -17 -24 -23 -19
-23 -19 -7 1 9 11 15 28 14 38 -2 9 1 15 5 12 5 -3 11 -1 15 5 3 5 9 10 12 10
3 0 -1 -8 -10 -18z m209 -8 c1 -9 0 -13 -4 -10 -3 4 -7 14 -8 22 -1 9 0 13 4
10 3 -4 7 -14 8 -22z m960 11 c-1 -8 -5 -17 -8 -21 -5 -4 -4 16 1 34 3 9 9 -1
7 -13z m-1104 -22 c-1 -4 7 -17 16 -28 17 -20 17 -20 -4 -2 -11 9 -21 24 -21
32 0 8 2 13 5 11 2 -2 4 -8 4 -13z m-178 -4 c3 -3 -5 -5 -19 -5 -13 0 -22 3
-19 7 4 8 30 6 38 -2z m221 3 c-3 -3 2 -14 12 -24 24 -27 10 -22 -15 5 -17 18
-19 24 -7 24 8 0 13 -3 10 -5z m42 -9 c0 -9 -4 -10 -14 -2 -7 6 -13 12 -13 14
0 1 6 2 13 2 8 0 14 -6 14 -14z m32 3 c10 -12 8 -17 -11 -26 -20 -10 -21 -10
-6 3 13 10 15 16 6 25 -7 7 -9 12 -6 12 3 0 11 -6 17 -14z m130 -20 c-3 -3
-11 5 -18 17 -13 21 -12 21 5 5 10 -10 16 -20 13 -22z m238 27 c-4 -3 1 -16
10 -27 18 -21 18 -21 -4 -2 -25 21 -30 36 -11 36 6 0 8 -3 5 -7z m173 4 c0 -2
-10 -12 -22 -23 l-23 -19 19 23 c18 21 26 27 26 19z m69 -31 c-3 -3 -11 5 -18
17 -13 21 -12 21 5 5 10 -10 16 -20 13 -22z m238 27 c-4 -3 1 -16 10 -27 18
-21 18 -21 -4 -2 -25 21 -30 36 -11 36 6 0 8 -3 5 -7z m161 -13 c-7 -10 -14
-17 -17 -15 -4 4 18 35 25 35 2 0 -1 -9 -8 -20z m-1358 7 c0 -2 -8 -11 -18
-20 -15 -14 -19 -15 -19 -2 0 8 4 12 8 9 4 -2 10 0 14 6 6 10 15 14 15 7z
m417 -12 c0 -8 -3 -13 -5 -10 -3 3 -12 -1 -21 -7 -10 -8 -9 -4 3 10 23 26 23
26 23 7z m156 0 c-3 -9 -8 -14 -10 -11 -3 3 -2 9 2 15 9 16 15 13 8 -4z m67
12 c0 -2 -10 -12 -22 -23 l-23 -19 19 23 c18 21 26 27 26 19z m160 -39 c0 -4
-5 -8 -12 -8 -6 0 -8 3 -5 7 4 3 -1 16 -10 27 -18 21 -18 21 5 2 12 -11 22
-23 22 -28z m253 27 c-3 -9 -8 -14 -10 -11 -3 3 -2 9 2 15 9 16 15 13 8 -4z
m67 12 c0 -2 -10 -12 -22 -23 l-23 -19 19 23 c18 21 26 27 26 19z m145 -17
c10 -11 16 -20 13 -20 -3 0 -13 9 -23 20 -10 11 -16 20 -13 20 3 0 13 -9 23
-20z m-1260 -20 c-3 -5 -12 -10 -18 -10 -7 0 -6 4 3 10 19 12 23 12 15 0z m51
-2 c3 -4 -1 -5 -10 -4 -8 1 -18 5 -22 8 -3 4 1 5 10 4 8 -1 18 -5 22 -8z m314
8 c0 -2 -8 -10 -17 -17 -16 -13 -17 -12 -4 4 13 16 21 21 21 13z m130 -10 c0
-2 -8 -10 -17 -17 -16 -13 -17 -12 -4 4 13 16 21 21 21 13z m86 -18 c12 -14
13 -18 3 -10 -9 6 -18 10 -21 7 -2 -3 -5 2 -5 10 0 19 0 19 23 -7z m267 7 c-3
-9 -8 -14 -10 -11 -3 3 -2 9 2 15 9 16 15 13 8 -4z m222 -23 c-3 -3 3 -15 12
-26 18 -21 18 -21 -5 -2 -12 11 -20 21 -17 24 3 3 -3 15 -12 26 -18 21 -18 21
5 2 12 -11 20 -21 17 -24z m182 23 c0 -8 -3 -13 -5 -10 -3 3 -12 -1 -21 -7
-10 -8 -9 -4 3 10 23 26 23 26 23 7z m-1166 -12 c13 -16 12 -17 -3 -4 -10 7
-18 15 -18 17 0 8 8 3 21 -13z m206 0 c0 -9 -4 -10 -14 -2 -7 6 -13 12 -13 14
0 1 6 2 13 2 8 0 14 -6 14 -14z m93 13 c0 -2 -8 -10 -17 -17 -16 -13 -17 -12
-4 4 13 16 21 21 21 13z m527 -3 c-4 -3 -2 -11 3 -18 7 -8 6 -12 -3 -12 -7 0
-14 9 -14 19 -1 10 3 18 9 18 6 0 8 -3 5 -7z m123 -18 c14 -19 14 -19 -2 -6
-10 7 -18 18 -18 24 0 6 1 8 3 6 1 -2 9 -13 17 -24z m365 15 c3 -6 -1 -7 -9
-4 -18 7 -21 14 -7 14 6 0 13 -4 16 -10z m-885 -4 c0 -2 -8 -10 -17 -17 -16
-13 -17 -12 -4 4 13 16 21 21 21 13z m361 -13 c13 -16 12 -17 -3 -4 -17 13
-22 21 -14 21 2 0 10 -8 17 -17z m440 0 c13 -16 12 -17 -3 -4 -17 13 -22 21
-14 21 2 0 10 -8 17 -17z m-1307 -1 c3 -5 -1 -9 -9 -9 -8 0 -12 4 -9 9 3 4 7
8 9 8 2 0 6 -4 9 -8z m143 -9 c0 -9 -4 -10 -14 -2 -7 6 -13 12 -13 14 0 1 6 2
13 2 8 0 14 -6 14 -14z m43 3 c-7 -7 -13 -7 -20 0 -6 6 -3 10 10 10 13 0 16
-4 10 -10z m50 9 c0 -1 -10 -10 -22 -21 -14 -12 -18 -13 -10 -3 6 9 10 18 7
21 -3 2 2 5 10 5 8 0 15 -1 15 -2z m387 -12 c0 -9 -4 -10 -14 -2 -7 6 -13 12
-13 14 0 1 6 2 13 2 8 0 14 -6 14 -14z m43 3 c-7 -7 -13 -7 -20 0 -6 6 -3 10
10 10 13 0 16 -4 10 -10z m50 9 c0 -1 -10 -10 -22 -21 -14 -12 -18 -13 -10 -3
6 9 10 18 7 21 -3 2 2 5 10 5 8 0 15 -1 15 -2z m235 -5 c-3 -5 -12 -10 -18
-10 -7 0 -6 4 3 10 19 12 23 12 15 0z m152 -7 c0 -9 -4 -10 -14 -2 -7 6 -13
12 -13 14 0 1 6 2 13 2 8 0 14 -6 14 -14z m43 3 c-7 -7 -13 -7 -20 0 -6 6 -3
10 10 10 13 0 16 -4 10 -10z m50 9 c0 -1 -10 -10 -22 -21 -14 -12 -18 -13 -10
-3 6 9 10 18 7 21 -3 2 2 5 10 5 8 0 15 -1 15 -2z m-730 -8 c0 -2 -8 -11 -18
-20 -15 -14 -19 -15 -19 -2 0 8 4 12 8 9 4 -2 10 0 14 6 6 10 15 14 15 7z m48
-11 c-14 -10 -15 -15 -5 -26 10 -11 8 -11 -6 0 -18 13 -18 15 -1 27 23 17 34
16 12 -1z m64 -1 c3 3 11 -3 19 -12 12 -16 12 -17 -2 -6 -9 7 -18 11 -21 8 -3
-3 -11 3 -19 12 -12 16 -12 17 2 6 9 -7 18 -11 21 -8z m225 0 c0 -8 -3 -13 -5
-10 -3 3 -12 -1 -21 -7 -10 -8 -9 -4 3 10 23 26 23 26 23 7z m67 -24 c-2 -2
-10 1 -17 7 -8 7 -16 10 -19 7 -2 -3 -5 1 -5 9 0 12 5 11 23 -2 12 -9 20 -19
18 -21z m160 0 c-2 -2 -10 1 -17 7 -8 7 -16 10 -19 7 -2 -3 -5 1 -5 9 0 12 5
11 23 -2 12 -9 20 -19 18 -21z m208 27 c-14 -14 -44 -20 -36 -7 3 5 9 7 14 4
5 -3 11 -1 15 5 3 5 9 10 13 10 3 0 1 -5 -6 -12z m30 -11 c-7 -8 -10 -16 -7
-19 3 -2 -1 -5 -9 -5 -12 0 -11 5 2 23 9 12 19 20 21 18 2 -2 -1 -10 -7 -17z
m90 8 c2 3 5 -2 5 -10 0 -19 0 -19 -23 7 -12 14 -13 18 -3 10 9 -6 18 -10 21
-7z m-1298 -7 c-3 -4 0 -8 7 -8 7 0 9 -3 6 -6 -4 -4 -13 -2 -20 4 -8 7 -18 8
-22 4 -5 -4 -5 -2 -2 4 3 6 13 11 21 11 8 0 13 -4 10 -9z m57 -5 c13 -16 12
-17 -3 -4 -10 7 -18 15 -18 17 0 8 8 3 21 -13z m149 13 c0 -2 -7 -7 -16 -10
-8 -3 -12 -2 -9 4 6 10 25 14 25 6z m11 -19 c-10 -9 -11 -8 -5 6 3 10 9 15 12
12 3 -3 0 -11 -7 -18z m109 -2 c14 -19 14 -19 -2 -6 -10 7 -18 18 -18 24 0 6
1 8 3 6 1 -2 9 -13 17 -24z m360 21 c0 -2 -7 -7 -16 -10 -8 -3 -12 -2 -9 4 6
10 25 14 25 6z m554 -5 c3 -5 -2 -15 -12 -22 -15 -12 -16 -12 -5 2 7 9 10 19
6 22 -3 4 -4 7 0 7 3 0 8 -4 11 -9z m-1114 -5 c0 -2 -9 -6 -20 -9 -11 -3 -18
-1 -14 4 5 9 34 13 34 5z m359 -9 c8 -10 7 -14 -2 -14 -8 0 -14 6 -14 14 0 7
1 13 2 13 2 0 8 -6 14 -13z m121 9 c0 -2 -9 -6 -20 -9 -11 -3 -18 -1 -14 4 5
9 34 13 34 5z m480 0 c0 -2 -9 -6 -20 -9 -11 -3 -18 -1 -14 4 5 9 34 13 34 5z
m-395 -16 c-3 -5 -12 -10 -18 -10 -7 0 -6 4 3 10 19 12 23 12 15 0z m586 -7
c13 -16 12 -17 -3 -4 -17 13 -22 21 -14 21 2 0 10 -8 17 -17z m-1293 -18 c-3
-3 -9 2 -12 12 -6 14 -5 15 5 6 7 -7 10 -15 7 -18z m158 10 c-1 -8 -5 -17 -8
-21 -5 -4 -4 16 1 34 3 9 9 -1 7 -13z m163 2 c8 -10 7 -14 -2 -14 -8 0 -14 6
-14 14 0 7 1 13 2 13 2 0 8 -6 14 -13z m98 -2 c0 -8 -3 -13 -5 -10 -3 3 -10 0
-17 -5 -8 -7 -12 -5 -12 5 0 8 4 12 8 9 4 -2 10 0 14 6 9 14 12 13 12 -5z
m219 0 c-1 -8 -5 -17 -8 -21 -5 -4 -4 16 1 34 3 9 9 -1 7 -13z m120 0 c-1 -8
-5 -17 -8 -21 -5 -4 -4 16 1 34 3 9 9 -1 7 -13z m42 -10 c-3 -3 -9 2 -12 12
-6 14 -5 15 5 6 7 -7 10 -15 7 -18z m160 0 c-3 -3 -9 2 -12 12 -6 14 -5 15 5
6 7 -7 10 -15 7 -18z m158 10 c-1 -8 -5 -17 -8 -21 -5 -4 -4 16 1 34 3 9 9 -1
7 -13z m-1057 2 c-2 -1 -13 -9 -24 -17 -19 -14 -19 -14 -6 3 7 9 18 17 24 17
6 0 8 -1 6 -3z m66 -6 c-9 -8 -36 -10 -30 -2 2 4 11 8 20 8 8 0 13 -3 10 -6z
m480 0 c-9 -8 -36 -10 -30 -2 2 4 11 8 20 8 8 0 13 -3 10 -6z m245 5 c0 -2 -8
-10 -17 -17 -16 -13 -17 -12 -4 4 13 16 21 21 21 13z m86 -8 c4 -7 4 -10 -1
-6 -4 4 -15 2 -24 -5 -14 -11 -14 -10 -2 6 16 20 18 21 27 5z m83 9 c-2 -1
-13 -9 -24 -17 -19 -14 -19 -14 -6 3 7 9 18 17 24 17 6 0 8 -1 6 -3z m66 -6
c-9 -8 -36 -10 -30 -2 2 4 11 8 20 8 8 0 13 -3 10 -6z"/>
<path d="M2710 2464 c0 -6 6 -17 14 -23 11 -9 16 -9 22 1 4 7 4 10 -1 6 -4 -4
-14 0 -21 10 -7 9 -14 12 -14 6z"/>
<path d="M1835 2449 c-4 -6 -5 -12 -2 -15 2 -3 7 2 10 11 7 17 1 20 -8 4z"/>
<path d="M1881 2452 c-1 -7 -5 -11 -10 -8 -9 6 -41 -35 -41 -51 0 -4 8 4 18
18 9 15 25 25 34 23 10 -1 21 3 25 8 3 6 1 8 -5 4 -5 -3 -13 0 -15 6 -4 10 -6
10 -6 0z"/>
<path d="M2475 2450 c-3 -5 -1 -10 4 -10 6 0 11 5 11 10 0 6 -2 10 -4 10 -3 0
-8 -4 -11 -10z"/>
<path d="M2670 2456 c0 -3 9 -10 20 -16 11 -6 20 -8 20 -6 0 3 -9 10 -20 16
-11 6 -20 8 -20 6z"/>
<path d="M1352 2430 c-18 -29 -15 -38 4 -12 9 13 14 25 12 27 -2 2 -9 -5 -16
-15z"/>
<path d="M1468 2443 c6 -2 18 -2 25 0 6 3 1 5 -13 5 -14 0 -19 -2 -12 -5z"/>
<path d="M1590 2440 c0 -5 5 -10 10 -10 6 0 10 5 10 10 0 6 -4 10 -10 10 -5 0
-10 -4 -10 -10z"/>
<path d="M1708 2443 c6 -2 18 -2 25 0 6 3 1 5 -13 5 -14 0 -19 -2 -12 -5z"/>
<path d="M1920 2435 c-7 -9 -10 -18 -7 -22 4 -3 9 2 13 11 3 9 11 13 17 9 6
-3 7 -1 3 5 -9 15 -11 15 -26 -3z"/>
<path d="M2215 2440 c-4 -6 1 -7 11 -3 13 5 15 3 9 -7 -5 -9 -4 -11 4 -6 6 4
9 12 6 17 -8 12 -22 12 -30 -1z"/>
<path d="M2419 2448 c-5 -18 -2 -55 4 -51 5 3 7 14 4 24 -3 12 2 19 17 22 20
4 20 4 -1 6 -13 0 -23 0 -24 -1z"/>
<path d="M2650 2443 c5 -2 8 -8 6 -12 -3 -4 0 -13 5 -21 7 -11 8 -9 6 9 -2 14
-9 26 -16 27 -6 1 -7 0 -1 -3z"/>
<path d="M1957 2427 c-3 -8 -2 -20 3 -26 5 -9 8 -4 8 13 0 29 -3 32 -11 13z"/>
<path d="M2193 2414 c0 -17 2 -22 7 -13 5 6 6 18 3 26 -8 19 -10 16 -10 -13z"/>
<path d="M1380 2425 c0 -8 29 -12 39 -5 9 5 4 8 -13 8 -14 0 -26 -2 -26 -3z"/>
<path d="M1456 2415 c4 -10 0 -13 -15 -10 -11 2 -24 -2 -27 -8 -4 -7 -4 -9 1
-5 4 4 14 0 22 -10 12 -16 13 -16 7 1 -4 12 -2 17 7 15 7 -2 15 5 17 15 2 9
-1 17 -7 17 -6 0 -8 -7 -5 -15z"/>
<path d="M1492 2414 c2 -8 8 -15 13 -16 6 -1 15 -8 22 -17 6 -9 15 -13 19 -8
4 4 2 7 -4 7 -7 0 -12 5 -12 11 0 5 5 7 12 3 6 -4 8 -3 4 4 -3 6 -16 9 -27 7
-15 -3 -19 0 -15 10 3 8 1 15 -5 15 -6 0 -9 -7 -7 -16z"/>
<path d="M1550 2422 c0 -5 7 -9 15 -9 8 0 15 4 15 9 0 4 -7 8 -15 8 -8 0 -15
-4 -15 -8z"/>
<path d="M1620 2422 c0 -5 7 -9 15 -9 8 0 15 4 15 9 0 4 -7 8 -15 8 -8 0 -15
-4 -15 -8z"/>
<path d="M1696 2415 c4 -10 0 -13 -15 -10 -11 2 -24 -1 -27 -7 -4 -7 -2 -8 4
-4 8 5 12 -1 13 -16 l1 -23 6 23 c4 13 12 23 17 22 6 -1 11 6 13 14 2 9 -1 16
-7 16 -6 0 -8 -7 -5 -15z"/>
<path d="M1732 2413 c2 -10 13 -17 30 -17 14 -1 24 2 21 7 -3 5 -14 6 -25 4
-14 -4 -18 -2 -14 9 3 8 1 14 -5 14 -6 0 -9 -7 -7 -17z"/>
<path d="M1770 2425 c0 -8 29 -12 39 -5 9 5 4 8 -13 8 -14 0 -26 -2 -26 -3z"/>
<path d="M2060 2408 c-11 -22 -10 -22 4 -4 16 20 16 20 32 0 14 -18 15 -18 4
4 -6 12 -15 22 -20 22 -5 0 -14 -10 -20 -22z"/>
<path d="M2741 2420 c-9 -5 -4 -7 13 -7 29 0 32 2 13 10 -8 3 -20 2 -26 -3z"/>
<path d="M1356 2395 c-9 -26 -7 -32 5 -12 6 10 9 21 6 23 -2 3 -7 -2 -11 -11z"/>
<path d="M1590 2400 c0 -5 5 -10 10 -10 6 0 10 5 10 10 0 6 -4 10 -10 10 -5 0
-10 -4 -10 -10z"/>
<path d="M1870 2400 c0 -5 7 -7 15 -4 8 4 15 8 15 10 0 2 -7 4 -15 4 -8 0 -15
-4 -15 -10z"/>
<path d="M1925 2399 c-5 -8 -4 -10 3 -5 7 4 12 3 12 -3 0 -5 -6 -12 -12 -14
-10 -4 -10 -6 -1 -6 17 -1 27 19 15 31 -6 6 -12 6 -17 -3z"/>
<path d="M2214 2398 c-7 -11 5 -28 19 -27 9 0 9 2 0 6 -7 2 -13 9 -13 14 0 6
4 8 9 4 5 -3 12 -2 15 3 3 5 -2 9 -10 9 -8 0 -17 -4 -20 -9z"/>
<path d="M2260 2406 c0 -2 7 -6 15 -10 8 -3 15 -1 15 4 0 6 -7 10 -15 10 -8 0
-15 -2 -15 -4z"/>
<path d="M1842 2380 c-18 -29 -15 -38 4 -12 9 13 14 25 12 27 -2 2 -9 -5 -16
-15z"/>
<path d="M2721 2382 c-1 -15 -5 -21 -13 -16 -7 5 -8 3 -3 -5 10 -18 28 2 22
25 -4 15 -5 14 -6 -4z"/>
<path d="M2753 2382 c1 -12 6 -18 15 -15 7 3 10 9 5 12 -4 3 -11 10 -15 15 -4
4 -6 -1 -5 -12z"/>
<path d="M1375 2380 c-3 -6 1 -7 9 -4 18 7 21 14 7 14 -6 0 -13 -4 -16 -10z"/>
<path d="M1460 2368 c-11 -22 -11 -23 5 -3 13 16 17 17 25 6 4 -8 16 -16 24
-17 9 -1 14 2 10 7 -3 5 -9 7 -14 4 -4 -3 -10 2 -14 10 -8 22 -24 18 -36 -7z"/>
<path d="M1570 2383 c5 -2 10 -9 10 -14 0 -6 -4 -8 -8 -5 -4 2 -14 0 -22 -5
-11 -7 -8 -8 10 -6 26 4 35 28 12 33 -7 1 -8 0 -2 -3z"/>
<path d="M1620 2381 c0 -5 7 -11 14 -14 10 -4 13 -1 9 9 -6 15 -23 19 -23 5z"/>
<path d="M1710 2380 c0 -5 5 -10 10 -10 6 0 10 5 10 10 0 6 -4 10 -10 10 -5 0
-10 -4 -10 -10z"/>
<path d="M1761 2374 c0 -11 3 -14 6 -6 3 7 2 16 -1 19 -3 4 -6 -2 -5 -13z"/>
<path d="M1795 2379 c-4 -6 -4 -13 -1 -16 3 -4 6 -1 6 6 0 7 5 9 10 6 6 -3 10
-1 10 4 0 14 -17 14 -25 0z"/>
<path d="M1885 2380 c-3 -6 1 -7 9 -4 18 7 21 14 7 14 -6 0 -13 -4 -16 -10z"/>
<path d="M1975 2379 c-11 -16 -1 -19 13 -3 7 8 8 14 3 14 -5 0 -13 -5 -16 -11z"/>
<path d="M2064 2375 c-4 -8 -11 -12 -17 -8 -6 4 -7 1 -2 -7 6 -10 11 -9 22 5
13 18 13 18 26 0 11 -14 16 -15 22 -5 5 8 4 11 -2 7 -6 -4 -13 0 -17 8 -3 8
-10 15 -16 15 -6 0 -13 -7 -16 -15z"/>
<path d="M2172 2376 c7 -8 15 -12 17 -11 5 6 -10 25 -20 25 -5 0 -4 -6 3 -14z"/>
<path d="M2430 2380 c0 -6 4 -9 9 -6 5 4 12 1 14 -4 3 -6 4 -5 3 2 -3 15 -26
23 -26 8z"/>
<path d="M1415 2370 c6 -10 4 -12 -8 -7 -10 3 -17 2 -17 -3 0 -13 27 -13 35
-1 3 5 0 13 -6 17 -8 5 -9 3 -4 -6z"/>
<path d="M2015 2370 c6 -10 4 -12 -8 -7 -10 3 -17 2 -17 -3 0 -13 27 -13 35
-1 3 5 0 13 -6 17 -8 5 -9 3 -4 -6z"/>
<path d="M2137 2374 c-4 -4 -4 -11 -1 -15 7 -12 34 -11 34 1 0 5 -7 6 -17 3
-11 -4 -14 -3 -9 5 8 13 3 16 -7 6z"/>
<path d="M1333 2355 c0 -8 4 -12 9 -9 5 3 6 10 3 15 -9 13 -12 11 -12 -6z"/>
<path d="M1592 2350 c-18 -29 -15 -38 4 -12 9 13 14 25 12 27 -2 2 -9 -5 -16
-15z"/>
<path d="M1695 2360 c6 -10 -6 -14 -35 -11 -13 2 -13 0 -1 -8 17 -11 55 5 46
20 -4 5 -8 9 -11 9 -3 0 -2 -4 1 -10z"/>
<path d="M1852 2352 c-2 -7 -2 -16 2 -19 3 -4 6 1 6 9 0 11 6 14 19 11 10 -3
21 -1 24 4 3 4 -6 8 -20 8 -14 0 -28 -6 -31 -13z"/>
<path d="M2772 2351 c-11 -6 -10 -10 0 -19 11 -8 14 -7 14 9 0 10 0 19 -1 19
0 0 -6 -4 -13 -9z"/>
<path d="M1466 2342 c-2 -4 4 -8 14 -8 10 0 16 4 14 8 -3 4 -9 8 -14 8 -5 0
-11 -4 -14 -8z"/>
<path d="M1740 2345 c0 -8 29 -12 39 -5 9 5 4 8 -13 8 -14 0 -26 -2 -26 -3z"/>
<path d="M1970 2340 c0 -5 5 -10 11 -10 5 0 7 5 4 10 -3 6 -8 10 -11 10 -2 0
-4 -4 -4 -10z"/>
<path d="M2030 2340 c0 -6 7 -10 15 -10 8 0 15 2 15 4 0 2 -7 6 -15 10 -8 3
-15 1 -15 -4z"/>
<path d="M2110 2340 c-13 -8 -12 -10 3 -10 9 0 17 5 17 10 0 12 -1 12 -20 0z"/>
<path d="M2175 2340 c-3 -5 -1 -10 4 -10 6 0 11 5 11 10 0 6 -2 10 -4 10 -3 0
-8 -4 -11 -10z"/>
<path d="M2349 2340 c-6 -4 1 -7 15 -7 14 0 26 3 26 7 0 3 -7 7 -15 7 -8 0
-19 -4 -26 -7z"/>
<path d="M2730 2340 c0 -5 5 -10 10 -10 6 0 10 5 10 10 0 6 -4 10 -10 10 -5 0
-10 -4 -10 -10z"/>
<path d="M1517 2329 c7 -7 15 -10 18 -7 3 3 -2 9 -12 12 -14 6 -15 5 -6 -5z"/>
<path d="M1710 2330 c0 -5 5 -10 11 -10 5 0 7 5 4 10 -3 6 -8 10 -11 10 -2 0
-4 -4 -4 -10z"/>
<path d="M2390 2310 c0 -5 5 -10 11 -10 5 0 7 5 4 10 -3 6 -8 10 -11 10 -2 0
-4 -4 -4 -10z"/>
<path d="M2754 2298 c-4 -7 -3 -8 4 -4 7 4 12 3 12 -2 0 -16 -13 -22 -27 -11
-9 9 -13 8 -13 0 0 -6 5 -11 10 -11 14 0 12 -37 -2 -43 -7 -3 17 -6 55 -6 65
-1 67 0 67 24 0 25 -17 31 -71 27 -12 -1 -15 4 -12 18 6 21 -11 27 -23 8z"/>
<path d="M2357 2276 c-3 -8 0 -22 7 -32 10 -13 15 -14 21 -4 5 9 4 11 -3 6
-12 -7 -16 5 -13 32 2 16 -6 15 -12 -2z"/>
<path d="M2713 2258 c1 -15 6 -23 11 -18 4 4 4 16 -2 26 -9 16 -10 14 -9 -8z"/>
<path d="M260 2245 c0 -23 3 -25 50 -25 47 0 50 2 50 25 0 23 -3 25 -50 25
-47 0 -50 -2 -50 -25z"/>
<path d="M440 2244 c0 -24 2 -25 53 -22 45 3 52 6 55 26 3 21 0 22 -52 22 -53
0 -56 -1 -56 -26z"/>
<path d="M630 2245 c0 -23 3 -25 50 -25 47 0 50 2 50 25 0 23 -3 25 -50 25
-47 0 -50 -2 -50 -25z"/>
<path d="M2940 2245 c0 -23 3 -25 50 -25 47 0 50 2 50 25 0 23 -3 25 -50 25
-47 0 -50 -2 -50 -25z"/>
<path d="M3120 2245 c0 -24 3 -25 55 -25 52 0 55 1 53 25 -2 23 -6 25 -55 25
-50 0 -53 -1 -53 -25z"/>
<path d="M3310 2245 c0 -23 3 -25 50 -25 47 0 50 2 50 25 0 23 -3 25 -50 25
-47 0 -50 -2 -50 -25z"/>
<path d="M2311 2253 c-1 -17 19 -27 31 -15 6 6 6 12 -3 17 -8 5 -10 4 -5 -3 4
-7 3 -12 -3 -12 -5 0 -12 6 -14 13 -4 9 -6 9 -6 0z"/>
<path d="M2390 2220 c0 -5 7 -7 15 -4 8 4 15 8 15 10 0 2 -7 4 -15 4 -8 0 -15
-4 -15 -10z"/>
<path d="M2315 2199 c-11 -16 -1 -19 13 -3 7 8 8 14 3 14 -5 0 -13 -5 -16 -11z"/>
<path d="M2361 2204 c11 -3 15 -12 12 -23 -3 -10 -1 -21 4 -24 5 -3 8 7 7 21
0 19 -7 28 -20 29 -14 1 -15 1 -3 -3z"/>
<path d="M2758 2203 c13 -3 19 -9 16 -15 -4 -7 -2 -8 5 -4 17 11 3 26 -22 25
-22 -2 -22 -2 1 -6z"/>
<path d="M2336 2175 c4 -10 0 -13 -15 -10 -25 5 -38 -12 -22 -28 9 -9 11 -8 6
4 -5 12 -1 16 17 15 14 -1 24 5 26 17 2 9 -1 17 -7 17 -6 0 -8 -7 -5 -15z"/>
<path d="M2395 2180 c-3 -6 1 -7 9 -4 18 7 21 14 7 14 -6 0 -13 -4 -16 -10z"/>
<path d="M2737 2173 c6 -16 5 -16 -10 -4 -9 7 -17 9 -17 3 0 -12 26 -23 34
-15 10 10 7 33 -4 33 -5 0 -6 -8 -3 -17z"/>
<path d="M2410 2166 c0 -3 9 -10 20 -16 11 -6 20 -8 20 -6 0 3 -9 10 -20 16
-11 6 -20 8 -20 6z"/>
<path d="M2757 2155 c-8 -19 12 -30 26 -16 9 9 8 11 -6 5 -13 -5 -16 -2 -11
10 3 9 4 16 1 16 -3 0 -7 -7 -10 -15z"/>
<path d="M2345 2140 c-3 -5 -2 -10 4 -10 5 0 13 5 16 10 3 6 2 10 -4 10 -5 0
-13 -4 -16 -10z"/>
<path d="M2397 2143 c-4 -3 -7 -11 -7 -17 0 -6 5 -5 12 2 6 6 9 14 7 17 -3 3
-9 2 -12 -2z"/>
<path d="M2700 2140 c8 -5 20 -10 25 -10 6 0 3 5 -5 10 -8 5 -19 10 -25 10 -5
0 -3 -5 5 -10z"/>
<path d="M2681 2112 c-6 -12 -6 -23 0 -33 8 -12 10 -12 8 1 -3 30 1 41 13 34
7 -4 8 -3 4 4 -10 16 -14 15 -25 -6z"/>
<path d="M2730 2120 c-9 -6 -10 -10 -3 -10 6 0 15 5 18 10 8 12 4 12 -15 0z"/>
<path d="M2340 2105 c0 -8 29 -12 39 -5 9 5 4 8 -13 8 -14 0 -26 -2 -26 -3z"/>
<path d="M2416 2096 c4 -11 0 -13 -14 -9 -11 2 -22 1 -25 -4 -3 -5 7 -8 21 -7
25 1 47 34 23 34 -6 0 -8 -6 -5 -14z"/>
<path d="M2741 2100 c-9 -5 -4 -7 13 -7 29 0 32 2 13 10 -8 3 -20 2 -26 -3z"/>
<path d="M2316 2074 c-3 -9 -2 -22 2 -31 6 -10 9 -5 9 16 0 35 -2 38 -11 15z"/>
<path d="M2722 2060 c0 -14 2 -19 5 -12 2 6 2 18 0 25 -3 6 -5 1 -5 -13z"/>
<path d="M2752 2060 c0 -14 2 -19 5 -12 2 6 2 18 0 25 -3 6 -5 1 -5 -13z"/>
<path d="M2340 2060 c0 -5 5 -10 10 -10 6 0 10 5 10 10 0 6 -4 10 -10 10 -5 0
-10 -4 -10 -10z"/>
<path d="M2391 2057 c-1 -11 -6 -15 -13 -11 -6 4 -8 3 -4 -4 3 -6 16 -9 27 -7
15 3 19 0 15 -10 -3 -8 -1 -15 5 -15 6 0 9 7 7 16 -2 8 -7 14 -13 14 -5 -1
-12 7 -16 17 -7 17 -8 17 -8 0z"/>
<path d="M2430 2060 c0 -5 5 -10 10 -10 6 0 10 5 10 10 0 6 -4 10 -10 10 -5 0
-10 -4 -10 -10z"/>
<path d="M2481 2058 c0 -10 -6 -17 -13 -15 -6 1 -14 -6 -16 -15 -2 -10 1 -18
7 -18 6 0 8 7 5 15 -4 10 0 13 15 10 11 -2 24 1 27 7 4 6 2 8 -4 4 -6 -3 -13
2 -15 11 -4 17 -5 17 -6 1z"/>
<path d="M2617 2054 c-4 -4 -4 -11 -1 -15 7 -12 34 -11 34 1 0 5 -7 6 -17 3
-11 -4 -14 -3 -9 5 8 13 3 16 -7 6z"/>
<path d="M2540 2034 c0 -5 7 -18 15 -28 8 -11 15 -16 15 -10 0 5 -7 18 -15 28
-8 11 -15 16 -15 10z"/>
<path d="M2659 2028 c-1 -7 -1 -16 0 -20 0 -5 -6 -8 -14 -8 -8 0 -15 -5 -15
-10 0 -20 36 8 37 29 2 22 -6 30 -8 9z"/>
<path d="M2771 2031 c-8 -5 -20 -7 -28 -4 -7 3 -13 0 -13 -5 0 -13 39 -7 54 8
12 12 6 13 -13 1z"/>
<path d="M2351 2020 c-9 -5 -4 -7 13 -7 29 0 32 2 13 10 -8 3 -20 2 -26 -3z"/>
<path d="M2580 2018 c0 -4 7 -8 15 -8 8 0 15 4 15 8 0 5 -7 9 -15 9 -8 0 -15
-4 -15 -9z"/>
<path d="M2695 2020 c-3 -5 -3 -10 2 -10 4 0 0 -5 -9 -11 -10 -5 -18 -15 -18
-20 0 -6 8 -3 18 7 9 10 15 20 14 22 -2 3 2 9 10 13 9 6 9 9 1 9 -6 0 -15 -4
-18 -10z"/>
<path d="M2500 2006 c0 -2 7 -6 15 -10 8 -3 15 -1 15 4 0 6 -7 10 -15 10 -8 0
-15 -2 -15 -4z"/>
<path d="M2390 1990 c0 -5 5 -10 11 -10 5 0 7 5 4 10 -3 6 -8 10 -11 10 -2 0
-4 -4 -4 -10z"/>
<path d="M2428 1993 c6 -2 18 -2 25 0 6 3 1 5 -13 5 -14 0 -19 -2 -12 -5z"/>
<path d="M2532 1985 c-8 -10 -9 -15 -2 -15 6 0 8 -6 4 -12 -4 -7 -3 -10 1 -5
8 7 19 48 12 47 -1 -1 -8 -7 -15 -15z"/>
<path d="M2706 1984 c-11 -8 -16 -14 -10 -14 13 0 39 18 34 24 -3 2 -14 -2
-24 -10z"/>
<path d="M2295 1980 c-10 -16 4 -29 26 -25 15 3 19 0 15 -10 -3 -8 -1 -15 5
-15 6 0 9 8 7 18 -2 11 -12 17 -26 16 -16 -1 -21 3 -18 12 6 16 0 19 -9 4z"/>
<path d="M2345 1980 c3 -5 11 -10 16 -10 6 0 7 5 4 10 -3 6 -11 10 -16 10 -6
0 -7 -4 -4 -10z"/>
<path d="M2493 1976 c3 -8 2 -17 -4 -20 -5 -2 -4 -3 2 -2 15 3 21 36 7 36 -6
0 -8 -6 -5 -14z"/>
<path d="M2756 1982 c-2 -4 0 -14 6 -22 8 -12 9 -12 5 2 -3 9 -1 19 6 22 9 3
9 5 0 5 -6 1 -14 -3 -17 -7z"/>
<path d="M2430 1976 c0 -3 9 -10 20 -16 11 -6 20 -8 20 -6 0 3 -9 10 -20 16
-11 6 -20 8 -20 6z"/>
<path d="M2615 1971 c5 -9 0 -12 -16 -9 -19 2 -24 -2 -26 -22 -1 -20 0 -21 3
-4 4 15 11 20 23 17 22 -6 37 12 20 23 -8 5 -9 3 -4 -5z"/>
<path d="M2374 1955 c-3 -8 -3 -18 0 -24 4 -5 -2 -12 -11 -15 -15 -4 -15 -5 1
-3 14 1 20 10 20 30 2 30 -2 34 -10 12z"/>
<path d="M2410 1963 c5 -2 8 -9 5 -13 -3 -5 -1 -11 4 -14 5 -4 8 2 7 11 -2 9
-8 18 -15 19 -6 1 -7 0 -1 -3z"/>
<path d="M2736 1942 c0 -18 7 -28 18 -28 10 -1 11 0 2 3 -8 2 -12 12 -9 22 3
10 1 21 -4 24 -5 3 -8 -7 -7 -21z"/>
<path d="M2637 1953 c-4 -3 -7 -11 -7 -17 0 -6 5 -5 12 2 6 6 9 14 7 17 -3 3
-9 2 -12 -2z"/>
<path d="M2677 1947 c-3 -8 -2 -20 3 -26 5 -9 8 -4 8 13 0 29 -3 32 -11 13z"/>
<path d="M2707 1946 c-4 -10 -1 -13 8 -9 8 3 12 9 9 14 -7 12 -11 11 -17 -5z"/>
<path d="M2501 1940 c-9 -5 -4 -7 13 -7 29 0 32 2 13 10 -8 3 -20 2 -26 -3z"/>
<path d="M2776 1942 c-2 -4 -1 -14 4 -22 7 -11 9 -9 7 8 -1 24 -3 26 -11 14z"/>
<path d="M2310 1931 c0 -10 19 -25 25 -20 1 2 -3 10 -11 17 -8 7 -14 8 -14 3z"/>
<path d="M2388 1908 c-10 -10 -14 -18 -9 -18 10 0 36 29 30 34 -2 1 -12 -6
-21 -16z"/>
<path d="M2590 1921 c0 -6 6 -8 14 -5 9 3 13 -2 12 -18 -1 -14 5 -24 17 -26 9
-2 17 1 17 7 0 6 -6 8 -14 5 -9 -3 -13 2 -12 18 1 14 -5 24 -16 26 -10 2 -18
-1 -18 -7z"/>
<path d="M2660 1910 c6 -11 15 -20 20 -20 6 0 2 9 -7 20 -10 11 -19 20 -21 20
-1 0 2 -9 8 -20z"/>
<path d="M2420 1899 c0 -11 -4 -18 -9 -14 -5 3 -12 1 -15 -4 -4 -5 2 -8 11 -7
16 3 33 46 19 46 -3 0 -6 -9 -6 -21z"/>
<path d="M2473 1906 c-9 -11 -9 -15 0 -19 7 -3 14 3 14 14 2 22 2 22 -14 5z"/>
<path d="M2512 1900 c0 -14 2 -19 5 -12 2 6 2 18 0 25 -3 6 -5 1 -5 -13z"/>
<path d="M2574 1895 c1 -8 6 -18 11 -22 4 -4 5 -3 2 4 -4 6 -2 13 5 15 8 3 6
6 -4 10 -10 4 -15 2 -14 -7z"/>
<path d="M2708 1903 c7 -3 16 -2 19 1 4 3 -2 6 -13 5 -11 0 -14 -3 -6 -6z"/>
<path d="M2312 1876 c7 -8 15 -10 16 -5 2 5 9 6 15 2 7 -3 9 -2 4 2 -4 5 -17
10 -28 12 -16 2 -18 1 -7 -11z"/>
<path d="M2437 1877 c-3 -8 -2 -20 3 -26 5 -9 8 -4 8 13 0 29 -3 32 -11 13z"/>
<path d="M2535 1880 c6 -10 -6 -14 -35 -11 -13 2 -13 0 -1 -8 17 -11 55 5 46
20 -4 5 -8 9 -11 9 -3 0 -2 -4 1 -10z"/>
<path d="M2697 1883 c-2 -5 -3 -16 -2 -25 2 -9 -3 -19 -11 -22 -8 -3 -14 -10
-14 -16 0 -6 8 -4 18 6 9 10 15 20 14 22 -2 3 2 9 10 13 10 7 10 9 0 9 -7 0
-10 5 -7 10 3 6 4 10 1 10 -3 0 -7 -3 -9 -7z"/>
<path d="M2758 1883 c7 -3 16 -2 19 1 4 3 -2 6 -13 5 -11 0 -14 -3 -6 -6z"/>
<path d="M2357 1867 c-3 -8 -2 -20 3 -26 5 -9 8 -4 8 13 0 29 -3 32 -11 13z"/>
<path d="M2656 1865 c-3 -8 -1 -15 4 -15 6 0 10 7 10 15 0 8 -2 15 -4 15 -2 0
-6 -7 -10 -15z"/>
<path d="M2290 1855 c0 -8 2 -15 4 -15 2 0 6 7 10 15 3 8 1 15 -4 15 -6 0 -10
-7 -10 -15z"/>
<path d="M2556 1862 c-2 -4 -1 -14 4 -22 7 -11 9 -9 7 8 -1 24 -3 26 -11 14z"/>
<path d="M2591 1860 c-9 -5 -4 -7 13 -7 29 0 32 2 13 10 -8 3 -20 2 -26 -3z"/>
<path d="M2737 1853 c5 -12 3 -14 -7 -8 -9 5 -11 4 -6 -4 4 -6 12 -9 17 -6 12
8 12 35 -1 35 -5 0 -6 -7 -3 -17z"/>
<path d="M2413 1855 c4 -5 -3 -15 -15 -22 -13 -7 -18 -12 -12 -13 5 0 18 6 29
13 15 12 16 15 4 22 -8 5 -10 4 -6 0z"/>
<path d="M2310 1838 c0 -6 6 -8 14 -5 8 3 17 2 20 -4 2 -5 3 -4 2 2 -3 15 -36
21 -36 7z"/>
<path d="M2524 1839 c-4 -8 -3 -9 4 -5 8 5 12 -1 12 -14 0 -13 -4 -19 -12 -14
-7 4 -8 3 -4 -5 10 -16 26 -4 26 19 0 23 -16 35 -26 19z"/>
<path d="M2601 1822 c-1 -13 -5 -20 -11 -17 -6 3 -13 -1 -16 -9 -3 -9 -11 -13
-17 -9 -6 4 -7 1 -2 -7 6 -10 11 -10 20 3 7 9 15 14 18 10 9 -8 20 23 14 39
-3 7 -6 3 -6 -10z"/>
<path d="M2630 1830 c0 -5 7 -7 15 -4 8 4 15 8 15 10 0 2 -7 4 -15 4 -8 0 -15
-4 -15 -10z"/>
<path d="M2755 1831 c-9 -15 15 -25 28 -12 9 9 7 10 -7 5 -13 -5 -17 -4 -12 4
4 7 5 12 2 12 -3 0 -7 -4 -11 -9z"/>
<path d="M2450 1818 c0 -4 4 -8 9 -8 6 0 12 4 15 8 3 5 -1 9 -9 9 -8 0 -15 -4
-15 -9z"/>
<path d="M2490 1820 c0 -5 5 -10 10 -10 6 0 10 5 10 10 0 6 -4 10 -10 10 -5 0
-10 -4 -10 -10z"/>
<path d="M2700 1820 c-9 -6 -10 -10 -3 -10 6 0 15 5 18 10 8 12 4 12 -15 0z"/>
<path d="M2360 1811 c0 -7 -4 -10 -8 -7 -5 3 -16 -4 -25 -15 -9 -10 -12 -19
-7 -19 6 0 13 7 16 15 4 8 10 13 14 10 10 -6 24 14 16 22 -3 4 -6 1 -6 -6z"/>
<path d="M2734 1812 c3 -5 0 -13 -6 -15 -9 -4 -10 -6 -1 -6 17 -1 25 16 12 25
-7 4 -9 3 -5 -4z"/>
<path d="M2400 1806 c0 -2 7 -7 16 -10 8 -3 12 -2 9 4 -6 10 -25 14 -25 6z"/>
<path d="M2640 1806 c0 -2 7 -7 16 -10 8 -3 12 -2 9 4 -6 10 -25 14 -25 6z"/>
<path d="M2437 1787 c-3 -8 -2 -20 3 -26 5 -9 8 -4 8 13 0 29 -3 32 -11 13z"/>
<path d="M2677 1787 c-3 -8 -2 -20 3 -26 5 -9 8 -4 8 13 0 29 -3 32 -11 13z"/>
<path d="M2499 1779 c-12 -8 -12 -10 1 -8 30 3 41 -1 34 -13 -4 -7 -3 -8 4 -4
16 10 15 14 -6 25 -12 6 -23 6 -33 0z"/>
<path d="M2741 1780 c-9 -5 -4 -7 13 -7 29 0 32 2 13 10 -8 3 -20 2 -26 -3z"/>
<path d="M2334 1758 c-7 -11 5 -28 19 -27 9 0 9 2 0 6 -7 2 -13 9 -13 14 0 6
4 8 8 5 4 -2 14 -1 22 4 11 7 9 9 -8 7 -13 -1 -26 -5 -28 -9z"/>
<path d="M2396 1759 c3 -5 9 -7 14 -4 4 3 10 -2 14 -10 3 -8 10 -15 16 -15 15
0 -19 34 -36 36 -8 1 -12 -2 -8 -7z"/>
<path d="M2573 1753 c-3 -7 -8 -11 -12 -8 -4 2 -8 -3 -8 -12 0 -13 4 -11 18 6
10 12 21 21 24 21 3 -1 11 1 18 3 6 3 1 4 -12 4 -13 -1 -26 -7 -28 -14z"/>
<path d="M2636 1759 c3 -5 10 -7 15 -4 5 4 9 2 9 -4 0 -5 -5 -12 -10 -14 -6
-3 -5 -4 2 -3 19 4 16 29 -5 32 -9 1 -15 -2 -11 -7z"/>
<path d="M2470 1750 c-9 -6 -10 -10 -3 -10 6 0 15 5 18 10 8 12 4 12 -15 0z"/>
<path d="M2510 1751 c0 -10 19 -25 25 -20 1 2 -3 10 -11 17 -8 7 -14 8 -14 3z"/>
<path d="M2704 1746 c-16 -12 -17 -17 -6 -28 11 -11 12 -10 6 6 -5 13 -4 17 3
13 6 -4 13 0 17 8 7 19 5 19 -20 1z"/>
<path d="M2743 1741 c-7 -11 -9 -22 -6 -25 10 -10 33 -7 33 4 0 5 -8 6 -17 3
-16 -6 -16 -5 -4 10 8 10 12 19 10 22 -3 2 -10 -4 -16 -14z"/>
<path d="M2382 1736 c7 -8 15 -12 17 -11 5 6 -10 25 -20 25 -5 0 -4 -6 3 -14z"/>
<path d="M2604 1735 c-4 -8 -10 -12 -15 -9 -5 3 -12 -2 -15 -10 -3 -9 -9 -14
-13 -12 -4 3 -8 -5 -8 -17 -2 -19 -1 -19 15 5 9 14 25 24 34 22 10 -1 21 3 25
8 3 7 1 8 -5 4 -7 -4 -12 -3 -12 3 0 5 6 12 13 14 9 4 9 6 -1 6 -7 1 -15 -6
-18 -14z"/>
<path d="M2495 1731 c5 -9 0 -12 -16 -9 -16 2 -25 -3 -27 -14 -2 -10 1 -18 7
-18 6 0 8 6 5 14 -4 11 0 13 14 9 22 -5 38 12 21 23 -8 5 -9 3 -4 -5z"/>
<path d="M2316 1713 c-6 -14 -5 -15 5 -6 7 7 10 15 7 18 -3 3 -9 -2 -12 -12z"/>
<path d="M2416 1702 c0 -18 7 -28 18 -28 10 -1 11 0 2 3 -8 2 -12 12 -9 22 3
10 1 21 -4 24 -5 3 -8 -7 -7 -21z"/>
<path d="M2673 1704 c0 -17 2 -22 7 -13 5 6 6 18 3 26 -8 19 -10 16 -10 -13z"/>
<path d="M2340 1705 c0 -8 29 -12 39 -5 9 5 4 8 -13 8 -14 0 -26 -2 -26 -3z"/>
<path d="M2501 1700 c-9 -5 -4 -7 13 -7 29 0 32 2 13 10 -8 3 -20 2 -26 -3z"/>
<path d="M2630 1699 c0 -15 18 -19 23 -6 3 8 -1 14 -9 14 -8 0 -14 -4 -14 -8z"/>
<path d="M2717 1703 c-4 -3 -7 -11 -7 -17 0 -6 5 -5 12 2 6 6 9 14 7 17 -3 3
-9 2 -12 -2z"/>
<path d="M2288 1693 c6 -2 9 -10 6 -15 -4 -7 -2 -8 5 -4 13 9 5 26 -12 25 -9
0 -8 -2 1 -6z"/>
<path d="M2316 1673 c-6 -14 -5 -15 5 -6 7 7 10 15 7 18 -3 3 -9 -2 -12 -12z"/>
<path d="M2375 1680 c-3 -6 1 -7 9 -4 18 7 21 14 7 14 -6 0 -13 -4 -16 -10z"/>
<path d="M2590 1680 c0 -5 7 -7 15 -4 8 4 15 8 15 10 0 2 -7 4 -15 4 -8 0 -15
-4 -15 -10z"/>
<path d="M2740 1686 c0 -2 7 -6 15 -10 8 -3 15 -1 15 4 0 6 -7 10 -15 10 -8 0
-15 -2 -15 -4z"/>
<path d="M2460 1676 c0 -2 7 -6 15 -10 8 -3 15 -1 15 4 0 6 -7 10 -15 10 -8 0
-15 -2 -15 -4z"/>
<path d="M2511 1672 c3 -21 -2 -32 -13 -26 -6 4 -8 3 -5 -4 4 -5 15 -9 25 -8
9 2 25 -8 34 -22 16 -24 17 -24 15 -5 0 12 -4 20 -8 17 -4 -2 -10 3 -13 12 -3
8 -10 12 -16 9 -5 -3 -10 -2 -10 4 0 5 5 11 12 13 8 3 6 7 -5 11 -9 3 -16 3
-16 -1z"/>
<path d="M2573 1661 c2 -11 7 -24 12 -28 4 -5 5 -3 2 4 -4 6 -3 13 2 15 5 1 3
9 -5 16 -12 11 -13 9 -11 -7z"/>
<path d="M2340 1655 c0 -9 -6 -12 -15 -9 -8 4 -15 2 -15 -4 0 -14 33 -8 38 6
2 7 9 9 14 6 7 -4 8 -2 4 4 -10 17 -26 15 -26 -3z"/>
<path d="M2400 1660 c8 -5 20 -10 25 -10 6 0 3 5 -5 10 -8 5 -19 10 -25 10 -5
0 -3 -5 5 -10z"/>
<path d="M2614 1653 c2 -9 8 -18 15 -19 6 -1 7 0 2 2 -6 3 -7 12 -4 20 3 8 1
14 -5 14 -6 0 -9 -8 -8 -17z"/>
<path d="M2645 1660 c-3 -6 1 -7 9 -4 18 7 21 14 7 14 -6 0 -13 -4 -16 -10z"/>
<path d="M2670 1650 c-14 -11 -20 -20 -15 -20 6 0 4 -4 -3 -9 -11 -7 -11 -9 1
-14 10 -4 14 0 12 11 -1 9 10 25 24 34 14 10 22 18 16 18 -5 0 -21 -9 -35 -20z"/>
<path d="M2736 1656 c4 -11 -1 -13 -18 -10 -21 4 -21 3 -3 -5 11 -4 23 -7 28
-4 10 6 9 33 -3 33 -5 0 -7 -6 -4 -14z"/>
<path d="M2774 1659 c-3 -6 -2 -15 3 -20 5 -5 9 -1 9 11 0 23 -2 24 -12 9z"/>
<path d="M2379 1647 c-1 -1 -3 -15 -5 -32 -2 -20 0 -25 5 -16 5 8 7 20 4 28
-4 9 0 11 11 7 9 -3 16 -4 16 -1 0 5 -29 18 -31 14z"/>
<path d="M2454 1638 c-4 -7 -4 -10 1 -6 4 4 14 0 21 -10 7 -9 14 -12 14 -6 0
6 -6 17 -14 23 -11 9 -16 9 -22 -1z"/>
<path d="M2433 1614 c0 -17 2 -22 7 -13 5 6 6 18 3 26 -8 19 -10 16 -10 -13z"/>
<path d="M2347 1611 c-4 -17 -3 -21 5 -13 5 5 8 16 6 23 -3 8 -7 3 -11 -10z"/>
<path d="M2591 1620 c-9 -5 -4 -7 13 -7 29 0 32 2 13 10 -8 3 -20 2 -26 -3z"/>
<path d="M2690 1615 c0 -8 2 -15 4 -15 2 0 6 7 10 15 3 8 1 15 -4 15 -6 0 -10
-7 -10 -15z"/>
<path d="M2747 1610 c-3 -11 -3 -20 -1 -20 2 0 8 9 14 20 6 11 7 20 2 20 -6 0
-12 -9 -15 -20z"/>
<path d="M2715 1610 c-3 -5 -1 -10 4 -10 6 0 11 5 11 10 0 6 -2 10 -4 10 -3 0
-8 -4 -11 -10z"/>
<path d="M2455 1600 c-3 -5 -1 -10 4 -10 6 0 11 5 11 10 0 6 -2 10 -4 10 -3 0
-8 -4 -11 -10z"/>
<path d="M2500 1599 c0 -5 5 -7 10 -4 6 3 10 8 10 11 0 2 -4 4 -10 4 -5 0 -10
-5 -10 -11z"/>
<path d="M2530 1600 c0 -5 5 -10 11 -10 5 0 7 5 4 10 -3 6 -8 10 -11 10 -2 0
-4 -4 -4 -10z"/>
<path d="M2770 1599 c0 -5 5 -7 10 -4 6 3 10 8 10 11 0 2 -4 4 -10 4 -5 0 -10
-5 -10 -11z"/>
<path d="M2556 1298 c3 -5 10 -6 15 -3 13 9 11 12 -6 12 -8 0 -12 -4 -9 -9z"/>
<path d="M2174 655 c-3 -7 -4 -30 -2 -51 3 -34 6 -39 28 -39 23 0 25 4 27 48
1 26 -1 47 -5 48 -4 0 -15 2 -25 4 -10 2 -21 -3 -23 -10z"/>
<path d="M2170 429 c0 -49 1 -50 28 -47 25 3 27 7 29 51 2 46 1 47 -28 47 -28
0 -29 -1 -29 -51z"/>
<path d="M2183 293 c-8 -3 -13 -24 -13 -54 0 -49 1 -50 28 -47 25 3 27 6 27
53 0 50 -10 62 -42 48z"/>
<path d="M2172 58 c3 -54 4 -55 49 -49 6 0 9 20 7 49 -3 43 -5 47 -31 50 -28
3 -28 3 -25 -50z"/>
</g>
</svg>
