<svg xmlns="http://www.w3.org/2000/svg" width="314.88" height="365.083" viewBox="0 0 314.88 365.083">
  <g id="Group_18" data-name="Group 18" transform="translate(-997.624 -130.5)">
    <g id="Group_14" data-name="Group 14" transform="translate(1191.575 411.701)">
      <line id="Line_6" data-name="Line 6" y2="9.894" transform="translate(0 0)" fill="none" stroke="#45b6ff" stroke-width="5"/>
      <line id="Line_6-2" data-name="Line 6" y2="9.894" transform="translate(0 18.497)" fill="none" stroke="#45b6ff" stroke-width="5"/>
      <line id="Line_6-3" data-name="Line 6" y2="9.894" transform="translate(0 36.994)" fill="none" stroke="#45b6ff" stroke-width="5"/>
      <line id="Line_6-4" data-name="Line 6" y2="9.894" transform="translate(0 55.491)" fill="none" stroke="#45b6ff" stroke-width="5"/>
      <line id="Line_6-5" data-name="Line 6" y2="9.894" transform="translate(0 73.988)" fill="none" stroke="#45b6ff" stroke-width="5"/>
    </g>
    <g id="Group_17" data-name="Group 17" transform="translate(997.624 130.5)">
      <g id="Rectangle_44" data-name="Rectangle 44" transform="translate(107.201 61.729)" fill="#0f4" stroke="#0f4" stroke-width="5" opacity="0.15">
        <rect width="145.507" height="145.507" stroke="none"/>
        <rect x="2.5" y="2.5" width="140.507" height="140.507" fill="none"/>
      </g>
      <g id="Rectangle_43" data-name="Rectangle 43" transform="translate(53.189 135.342)" fill="#0f4" stroke="#0f4" stroke-width="5" opacity="0.5">
        <rect width="148.036" height="147.78" stroke="none"/>
        <rect x="2.5" y="2.5" width="143.036" height="142.78" fill="none"/>
      </g>
      <path id="Path_9" data-name="Path 9" d="M3583,339.2l51.485-73.1h145.286l-50.534,73.1Z" transform="translate(-3528.09 -204.313)" fill="#45b6ff" stroke="#0f4" stroke-width="5" opacity="0.1"/>
      <line id="Line_5" data-name="Line 5" x1="53.57" y2="76.012" transform="translate(55.208 205.189)" fill="none" stroke="#0f4" stroke-width="5" opacity="0.11"/>
      <path id="Path_10" data-name="Path 10" d="M3828,342.293v146l50.788-73.474.677-143.283Z" transform="translate(-3626.775 -207.407)" fill="#45b6ff" stroke="#0f4" stroke-width="5" opacity="0.1"/>
      <g id="Group_16" data-name="Group 16" transform="translate(107.076 149.553)">
        <rect id="Rectangle_47" data-name="Rectangle 47" width="83.116" height="6.22" rx="3.11" transform="translate(0 0)" fill="#f0f"/>
        <rect id="Rectangle_47-2" data-name="Rectangle 47" width="83.116" height="5.654" rx="2.827" transform="translate(0 18.093)" fill="#f0f"/>
        <rect id="Rectangle_47-3" data-name="Rectangle 47" width="83.116" height="5.654" rx="2.827" transform="translate(0 36.187)" fill="#f0f"/>
        <rect id="Rectangle_47-4" data-name="Rectangle 47" width="83.116" height="5.654" rx="2.827" transform="translate(0 54.28)" fill="#f0f"/>
        <rect id="Rectangle_47-5" data-name="Rectangle 47" width="83.116" height="5.654" rx="2.827" transform="translate(0 72.373)" fill="#f0f"/>
        <rect id="Rectangle_47-6" data-name="Rectangle 47" width="83.116" height="5.654" rx="2.827" transform="translate(0 90.467)" fill="#f0f"/>
        <rect id="Rectangle_47-7" data-name="Rectangle 47" width="83.116" height="5.654" rx="2.827" transform="translate(0 108.56)" fill="#f0f"/>
      </g>
      <g id="Group_15" data-name="Group 15" transform="translate(72.586 149.553)">
        <ellipse id="Ellipse_1" data-name="Ellipse 1" cx="13.57" cy="13.853" rx="13.57" ry="13.853" transform="translate(0 0)" fill="#45b6ff"/>
        <ellipse id="Ellipse_1-2" data-name="Ellipse 1" cx="13.57" cy="13.853" rx="13.57" ry="13.853" transform="translate(0 42.406)" fill="#45b6ff"/>
        <circle id="Ellipse_1-3" data-name="Ellipse 1" cx="13.57" cy="13.57" r="13.57" transform="translate(0 85.378)" fill="#45b6ff"/>
      </g>
      <g id="Ellipse_2" data-name="Ellipse 2" transform="matrix(0.848, -0.53, 0.53, 0.848, 171.137, 81.85)" fill="none" stroke="#0f4" stroke-width="5">
        <ellipse cx="18.927" cy="13.169" rx="18.927" ry="13.169" stroke="none"/>
        <ellipse cx="18.927" cy="13.169" rx="16.427" ry="10.669" fill="none"/>
      </g>
      <g id="Ellipse_3" data-name="Ellipse 3" transform="translate(217.501 160.184) rotate(-89)" fill="none" stroke="#0f4" stroke-width="5">
        <ellipse cx="18.927" cy="13.169" rx="18.927" ry="13.169" stroke="none"/>
        <ellipse cx="18.927" cy="13.169" rx="16.427" ry="10.669" fill="none"/>
      </g>
      <g id="Group_13" data-name="Group 13" transform="translate(193.951)">
        <line id="Line_6-6" data-name="Line 6" y2="9.894" fill="none" stroke="#45b6ff" stroke-width="5"/>
        <line id="Line_6-7" data-name="Line 6" y2="9.894" transform="translate(0 18.497)" fill="none" stroke="#45b6ff" stroke-width="5"/>
        <line id="Line_6-8" data-name="Line 6" y2="9.894" transform="translate(0 36.994)" fill="none" stroke="#45b6ff" stroke-width="5"/>
        <line id="Line_6-9" data-name="Line 6" y2="9.894" transform="translate(0 55.491)" fill="none" stroke="#45b6ff" stroke-width="5"/>
        <line id="Line_6-10" data-name="Line 6" y2="9.894" transform="translate(0 73.988)" fill="none" stroke="#45b6ff" stroke-width="5"/>
      </g>
      <line id="Line_6-11" data-name="Line 6" y2="9.894" transform="translate(314.88 141.49) rotate(90)" fill="none" stroke="#45b6ff" stroke-width="5"/>
      <line id="Line_6-12" data-name="Line 6" y2="9.894" transform="translate(296.383 141.49) rotate(90)" fill="none" stroke="#45b6ff" stroke-width="5"/>
      <line id="Line_6-13" data-name="Line 6" y2="9.894" transform="translate(277.886 141.49) rotate(90)" fill="none" stroke="#45b6ff" stroke-width="5"/>
      <line id="Line_9" data-name="Line 9" y2="9.894" transform="translate(46.888 141.49) rotate(90)" fill="none" stroke="#45b6ff" stroke-width="5"/>
      <line id="Line_6-14" data-name="Line 6" y2="9.894" transform="translate(259.389 141.49) rotate(90)" fill="none" stroke="#45b6ff" stroke-width="5"/>
      <line id="Line_10" data-name="Line 10" y2="9.894" transform="translate(28.391 141.49) rotate(90)" fill="none" stroke="#45b6ff" stroke-width="5"/>
      <line id="Line_6-15" data-name="Line 6" y2="9.894" transform="translate(240.892 141.49) rotate(90)" fill="none" stroke="#45b6ff" stroke-width="5"/>
      <line id="Line_11" data-name="Line 11" y2="9.894" transform="translate(9.894 141.49) rotate(90)" fill="none" stroke="#45b6ff" stroke-width="5"/>
    </g>
  </g>
</svg>
