<svg id="Layer_2" data-name="Layer 2" xmlns="http://www.w3.org/2000/svg" width="143" height="143" viewBox="0 0 143 143">
  <g id="invisible_box" data-name="invisible box">
    <rect id="Rectangle_13" data-name="Rectangle 13" width="143" height="143" fill="none"/>
  </g>
  <g id="icons_Q2" data-name="icons Q2" transform="translate(10.587 11.623)">
    <path id="Path_8" data-name="Path 8" d="M84.522,75.541a43.842,43.842,0,0,0,8.887-32.289,45.027,45.027,0,0,0-40.88-39.1,44.509,44.509,0,1,0-8.887,88.573,45.323,45.323,0,0,0,32.585-8.591l37.029,36.733a5.628,5.628,0,0,0,8.294,0h0a5.628,5.628,0,0,0,0-8.294ZM54.6,80.873A32.585,32.585,0,0,1,17.278,42.956,31.993,31.993,0,0,1,43.642,16.591,32.289,32.289,0,0,1,81.264,54.212,32.882,32.882,0,0,1,54.6,80.873Z" transform="translate(-3.574 -3.924)"/>
  </g>
</svg>
